<?xml version="1.0" encoding="UTF-8"?>
<svg version="1.1" xmlns="http://www.w3.org/2000/svg" width="686" height="594">
<path d="M0 0 C0.66 0.33 1.32 0.66 2 1 C3.69315377 1.09630516 5.39004832 1.13075045 7.0859375 1.1328125 C8.60574219 1.13474609 8.60574219 1.13474609 10.15625 1.13671875 C11.2184375 1.13285156 12.280625 1.12898438 13.375 1.125 C14.42945313 1.12886719 15.48390625 1.13273437 16.5703125 1.13671875 C17.58609375 1.13542969 18.601875 1.13414063 19.6484375 1.1328125 C20.57833496 1.13168457 21.50823242 1.13055664 22.46630859 1.12939453 C24.792554 1.01059418 26.77322235 0.65739229 29 0 C29 0.66 29 1.32 29 2 C30.093125 1.79375 31.18625 1.5875 32.3125 1.375 C36 1 36 1 39 3 C41.37393182 3.66458483 43.7253066 4.26016447 46.125 4.8125 C52.19303783 6.26838068 58.20115009 7.86234525 64.1875 9.625 C65.24638428 9.93401245 65.24638428 9.93401245 66.32666016 10.24926758 C69.96630688 11.32977401 73.50312918 12.51977119 77 14 C77 14.66 77 15.32 77 16 C77.81791016 16.23783203 77.81791016 16.23783203 78.65234375 16.48046875 C88.13607742 19.41475216 95.56495461 24.2229112 103.421875 30.23046875 C105.89780705 31.92985848 108.22229323 32.90840997 111 34 C111.28875 34.598125 111.5775 35.19625 111.875 35.8125 C113.33117174 38.64394505 115.46331018 39.76619887 118.05859375 41.5 C120.95728 43.73962881 123.13415278 46.48450766 125.421875 49.328125 C126.99826499 51.26209817 126.99826499 51.26209817 130 52 C130.92159242 53.60425347 131.83455942 55.21408483 132.703125 56.84765625 C134.23942593 59.39736051 136.03675225 61.58481333 137.9375 63.875 C147 74.95327103 147 74.95327103 147 80 C147.66 80 148.32 80 149 80 C155.73828125 95.72265625 155.73828125 95.72265625 156.91870117 98.49438477 C157.79290348 100.52011029 158.70683666 102.5286611 159.6328125 104.53125 C161.42593019 109.08064575 162.50705719 113.67019571 163.5625 118.4375 C163.77938477 119.40018799 163.99626953 120.36287598 164.21972656 121.35473633 C165.79059471 128.5362735 166.88789041 135.67141585 167.640625 142.98046875 C167.90202133 146.04255335 167.90202133 146.04255335 169 149 C169.09134073 150.38441528 169.13065596 151.77273269 169.1328125 153.16015625 C169.13410156 153.95357422 169.13539063 154.74699219 169.13671875 155.56445312 C169.13285156 156.38880859 169.12898437 157.21316406 169.125 158.0625 C169.12886719 158.89072266 169.13273438 159.71894531 169.13671875 160.57226562 C169.13542969 161.36439453 169.13414062 162.15652344 169.1328125 162.97265625 C169.13112061 164.05945679 169.13112061 164.05945679 169.12939453 165.16821289 C169 167 169 167 168 169 C167.76984342 170.50255216 167.5840739 172.01203863 167.421875 173.5234375 C164.58452508 198.43459128 159.05941461 222.20146427 144.28173828 243.03833008 C143.0119725 244.98167637 142.15298838 246.84158445 141.3125 249 C140.6628125 250.485 140.6628125 250.485 140 252 C139.01 252.33 138.02 252.66 137 253 C135.14835687 255.27959841 135.14835687 255.27959841 133.3125 258.0625 C129.63309627 263.27724316 125.62130833 267.62774421 121 272 C117.78665626 275.15491931 114.69279586 278.39201742 111.64819336 281.70751953 C102.44085334 291.72089391 92.8004532 301.29230728 83.14501953 310.87060547 C81.44263552 312.56058878 79.74445229 314.25442637 78.05078125 315.953125 C76.47035458 317.53054133 74.86520462 319.08321377 73.25 320.625 C70.80995326 322.86533112 70.80995326 322.86533112 70 326 C69.278125 326.4125 68.55625 326.825 67.8125 327.25 C65.24816425 328.84558669 64.04784115 329.97286111 62.1875 332.25 C59.36873424 335.69354374 56.24406549 338.50825629 52.8671875 341.39453125 C47.74503688 345.79872352 43.40820555 350.89979698 38.98828125 355.98828125 C38.00408203 356.98408203 38.00408203 356.98408203 37 358 C36.34 358 35.68 358 35 358 C35 358.66 35 359.32 35 360 C33.37659721 361.72985543 31.71140825 363.35908453 30 365 C28.50766074 366.4868223 27.0183651 367.97670251 25.53125 369.46875 C15.46875 379.53125 15.46875 379.53125 13.1027832 381.89697266 C11.86400414 383.13589555 10.62545841 384.37505195 9.38745117 385.61474609 C7.3740716 387.63074579 5.35084005 389.6340632 3.3125 391.625 C0.88724324 393.97085755 0.88724324 393.97085755 -1 397 C-2.07494116 397.99100369 -3.18216595 398.94767495 -4.3125 399.875 C-8.70008251 403.56599725 -12.59534146 407.51174393 -16.3125 411.875 C-19.36617247 415.42422458 -22.6651205 418.41656119 -26.30078125 421.359375 C-28.10239578 422.89813949 -28.10239578 422.89813949 -28.91796875 425.015625 C-30.39216658 427.71920803 -32.3630834 428.45502243 -35 430 C-36.57657043 431.59252224 -38.096798 433.24238377 -39.5625 434.9375 C-41.74382217 437.44394125 -43.88247854 439.88691331 -46.27734375 442.19140625 C-48.22989807 443.82508189 -48.22989807 443.82508189 -48 446 C-48.680625 446.37125 -49.36125 446.7425 -50.0625 447.125 C-52.80373173 448.87472238 -54.2519997 450.30197441 -56.3125 452.75 C-59.34014855 456.34492039 -62.58815669 459.37779093 -66.16015625 462.421875 C-69.93272223 465.65779147 -73.21245999 469.23275894 -76.4375 473 C-78.57339195 475.48024054 -80.67798284 477.66435002 -83.25 479.6875 C-86.07623363 481.80168882 -86.07623363 481.80168882 -87.5 484.5625 C-89.44922947 487.72999788 -91.91182713 488.9618059 -95 491 C-96.81569051 492.91498608 -98.38293357 494.90732579 -100 497 C-99.67 497.33 -99.34 497.66 -99 498 C-98.67 498.66 -98.34 499.32 -98 500 C-98.33 500.66 -98.66 501.32 -99 502 C-100.65 501.67 -102.3 501.34 -104 501 C-105.485 502.98 -105.485 502.98 -107 505 C-105.68 505.33 -104.36 505.66 -103 506 C-103.33 506.99 -103.66 507.98 -104 509 C-104.66 509 -105.32 509 -106 509 C-106.38133299 510.9914056 -106.71325582 512.99279077 -107 515 C-106.67 515.33 -106.34 515.66 -106 516 C-107.125 517.5625 -107.125 517.5625 -109 519 C-112.1875 518.6875 -112.1875 518.6875 -115 518 C-115 519.32 -115 520.64 -115 522 C-115.99 522 -116.98 522 -118 522 C-118.66 522.66 -119.32 523.32 -120 524 C-120.33 523.67 -120.66 523.34 -121 523 C-121.99 523.33 -122.98 523.66 -124 524 C-124 525.32 -124 526.64 -124 528 C-124 528.66 -124 529.32 -124 530 C-125.32 530.33 -126.64 530.66 -128 531 C-128 530.34 -128 529.68 -128 529 C-128.66 528.67 -129.32 528.34 -130 528 C-130 527.34 -130 526.68 -130 526 C-130.639375 525.71125 -131.27875 525.4225 -131.9375 525.125 C-134 524 -134 524 -135 522 C-136.32 522 -137.64 522 -139 522 C-139 521.34 -139 520.68 -139 520 C-139.99 519.67 -140.98 519.34 -142 519 C-143.03485877 516.68191636 -144.0355414 514.34824702 -145 512 C-145.66 511.67 -146.32 511.34 -147 511 C-147.99 511.99 -147.99 511.99 -149 513 C-151 511 -151 511 -151.875 508.125 C-153.08027886 504.77700317 -154.44317277 503.38637208 -157 501 C-157 500.34 -157 499.68 -157 499 C-157.99 499.33 -158.98 499.66 -160 500 C-160 499.01 -160 498.02 -160 497 C-160.598125 496.773125 -161.19625 496.54625 -161.8125 496.3125 C-164 495 -164 495 -165.4375 492.5625 C-167.27306661 489.55217075 -168.99509598 488.7589682 -172 487 C-176 482.56756757 -176 482.56756757 -176 480 C-176.86625 479.5978125 -176.86625 479.5978125 -177.75 479.1875 C-180 478 -180 478 -182.0625 476.4375 C-184.04181496 474.81311272 -184.04181496 474.81311272 -187 474 C-187 473.01 -187 472.02 -187 471 C-188.88638659 468.86209519 -190.44288177 467.27855912 -193 466 C-193 465.34 -193 464.68 -193 464 C-193.99 463.67 -194.98 463.34 -196 463 C-196.28875 462.38125 -196.5775 461.7625 -196.875 461.125 C-198.35958123 458.32079102 -200.23974247 457.45276712 -203 456 C-203.33 456.66 -203.66 457.32 -204 458 C-204 457.01 -204 456.02 -204 455 C-205.4793664 451.80768302 -206.36379318 450.31034479 -209.5625 448.75 C-210.7690625 448.37875 -210.7690625 448.37875 -212 448 C-212.66 447.67 -213.32 447.34 -214 447 C-214.12375 446.401875 -214.2475 445.80375 -214.375 445.1875 C-215.21149471 442.2597685 -216.70682772 440.94572193 -219 439 C-219.66 439 -220.32 439 -221 439 C-222.296875 437.20703125 -222.296875 437.20703125 -223.75 434.8125 C-225.63233697 431.88136701 -227.31822199 429.46821192 -230.0625 427.3125 C-233.21402417 424.83151289 -235.44545532 422.07855384 -238 419 C-238.825 418.34 -239.65 417.68 -240.5 417 C-242.5835728 415.33314176 -243.9371527 413.93277915 -245.5625 411.875 C-247.68178241 408.98267761 -247.68178241 408.98267761 -250.0625 408 C-252 407 -252 407 -253.8125 404.25 C-256.03330508 400.95051816 -258.22847846 398.98474676 -261.26953125 396.5078125 C-262.92898141 395.06188076 -264.25638412 393.5933253 -265.625 391.875 C-268.68221579 388.17415983 -272.02623732 385.64917512 -276 383 C-276.28875 382.360625 -276.5775 381.72125 -276.875 381.0625 C-277.88015246 378.79464985 -277.88015246 378.79464985 -280.375 377.625 C-283.6379524 375.60507709 -284.8877883 373.16831755 -287 370 C-289.60024049 368.13689678 -289.60024049 368.13689678 -292 367 C-292.33 367.66 -292.66 368.32 -293 369 C-293.2165625 367.515 -293.2165625 367.515 -293.4375 366 C-294.98692106 360.45352171 -299.72102976 357.50845636 -304 354 C-307.13154368 351.02121454 -309.97837253 347.88204959 -312.8125 344.625 C-316.04591388 340.9523299 -319.44979055 337.72194212 -323.1796875 334.5625 C-325.58362103 332.49903774 -327.79257825 330.27049094 -330 328 C-330.8971875 327.1646875 -330.8971875 327.1646875 -331.8125 326.3125 C-333 325 -333 325 -333 323 C-333.66 323 -334.32 323 -335 323 C-336.70993434 321.3777546 -338.37347684 319.70586575 -340 318 C-341.99134571 315.93206407 -343.55754252 314.62830499 -346 313 C-346 312.34 -346 311.68 -346 311 C-347.65448684 309.365311 -347.65448684 309.365311 -349.75 307.6875 C-352.92333742 304.99766583 -355.41021342 302.2581186 -358 299 C-359.72512305 297.43738854 -361.50052836 295.94723207 -363.28515625 294.453125 C-366.52147402 291.71073272 -369.39059367 288.70273884 -372.16796875 285.5 C-372.95816406 284.5925 -373.74835938 283.685 -374.5625 282.75 C-375.67818359 281.44289063 -375.67818359 281.44289063 -376.81640625 280.109375 C-378.77079516 277.85562909 -378.77079516 277.85562909 -381.15234375 277.515625 C-381.76207031 277.34546875 -382.37179687 277.1753125 -383 277 C-383.71745684 275.35455845 -384.37887107 273.68416777 -385 272 C-386.75046904 269.9625817 -386.75046904 269.9625817 -388.8125 268.125 C-391.4993506 265.56005732 -393.78965045 263.07511248 -395.875 260 C-396.926875 258.515 -396.926875 258.515 -398 257 C-398.66 257 -399.32 257 -400 257 C-400.33 256.01 -400.66 255.02 -401 254 C-401.99 253.01 -401.99 253.01 -403 252 C-403.98596504 250.43372411 -404.94064549 248.84760097 -405.875 247.25 C-407.63180185 244.27032628 -409.40463193 241.34295964 -411.375 238.5 C-413 236 -413 236 -413 234 C-413.99 234 -414.98 234 -416 234 C-416.2165625 232.6696875 -416.2165625 232.6696875 -416.4375 231.3125 C-416.91019978 228.52882354 -417.43070185 225.76516243 -418 223 C-418.66 223 -419.32 223 -420 223 C-426.33196721 206.66803279 -426.33196721 206.66803279 -428.26171875 198.33203125 C-428.90652884 195.91092291 -428.90652884 195.91092291 -430.50537109 193.77636719 C-432.30813421 190.42762133 -432.48253225 188.03596589 -432.65234375 184.24609375 C-432.68464584 183.59684433 -432.71694794 182.94759491 -432.75022888 182.27867126 C-432.84924351 180.18611632 -432.92666778 178.0936018 -433 176 C-433.04075653 174.95649384 -433.04075653 174.95649384 -433.08233643 173.89190674 C-433.27489448 168.94958347 -433.42392303 164.00658684 -433.5625 159.0625 C-433.60586623 157.58918522 -433.64948496 156.11587786 -433.69335938 154.64257812 C-433.79846681 151.09513223 -433.90021673 147.54760014 -434 144 C-434.33 144 -434.66 144 -435 144 C-435 141.69 -435 139.38 -435 137 C-434.34 137 -433.68 137 -433 137 C-432.66408104 134.72954771 -432.33134935 132.45862367 -432 130.1875 C-431.814375 128.92292969 -431.62875 127.65835938 -431.4375 126.35546875 C-430.93535508 123.06817492 -430.93535508 123.06817492 -431 120 C-430.01 119.505 -430.01 119.505 -429 119 C-428.11224876 116.86837008 -428.11224876 116.86837008 -427.37109375 114.25 C-427.06236328 113.25629395 -426.75363281 112.26258789 -426.43554688 111.23876953 C-426.10619141 110.16997559 -425.77683594 109.10118164 -425.4375 108 C-422.38971279 98.41490937 -418.67837843 89.78646623 -413.6875 81.0703125 C-411.83944603 78.29179675 -411.83944603 78.29179675 -412 76 C-410.8350081 74.86927257 -409.66806203 73.74049973 -408.4921875 72.62109375 C-406.73465351 70.71173091 -405.40196091 68.68284587 -404 66.5 C-401.66093897 62.87415475 -399.14540569 59.97538376 -396 57 C-394.19618408 54.7285281 -392.61091622 52.41637434 -391 50 C-390.401875 49.731875 -389.80375 49.46375 -389.1875 49.1875 C-385.08916447 46.96268928 -382.45572861 43.36718583 -381 39 C-379.68 39 -378.36 39 -377 39 C-374.64448301 37.42114767 -374.64448301 37.42114767 -372.3125 35.3125 C-361.14742451 26 -361.14742451 26 -356 26 C-355.67 24.35 -355.34 22.7 -355 21 C-354.071875 20.938125 -353.14375 20.87625 -352.1875 20.8125 C-346.71890969 20.06985193 -341.9050332 17.40373236 -337 15 C-337 14.34 -337 13.68 -337 13 C-336.41226807 12.88462891 -335.82453613 12.76925781 -335.21899414 12.65039062 C-328.60814181 11.34179746 -322.01735797 9.95630659 -315.4375 8.5 C-314.44169922 8.28730469 -313.44589844 8.07460938 -312.41992188 7.85546875 C-311.47568359 7.64535156 -310.53144531 7.43523438 -309.55859375 7.21875 C-308.27940063 6.9393457 -308.27940063 6.9393457 -306.97436523 6.65429688 C-306.32282471 6.43837891 -305.67128418 6.22246094 -305 6 C-304.67 5.34 -304.34 4.68 -304 4 C-302.78183594 3.93941406 -301.56367188 3.87882812 -300.30859375 3.81640625 C-298.68488723 3.73193597 -297.06118978 3.64729128 -295.4375 3.5625 C-294.63763672 3.52318359 -293.83777344 3.48386719 -293.01367188 3.44335938 C-289.39855546 3.25153687 -285.92649868 2.98797251 -282.34765625 2.40234375 C-278.631157 1.95566998 -275.69173415 2.4060617 -272 3 C-268.52406365 3.25822841 -265.04448009 3.40958367 -261.5625 3.5625 C-260.64017578 3.60568359 -259.71785156 3.64886719 -258.76757812 3.69335938 C-256.51183837 3.79854931 -254.25600501 3.90069107 -252 4 C-251.67 4.66 -251.34 5.32 -251 6 C-249.01164126 6.73433765 -249.01164126 6.73433765 -246.58984375 7.25390625 C-245.68169922 7.46853516 -244.77355469 7.68316406 -243.83789062 7.90429688 C-242.88076172 8.12150391 -241.92363281 8.33871094 -240.9375 8.5625 C-240.00744141 8.78357422 -239.07738281 9.00464844 -238.11914062 9.23242188 C-233.92287505 10.20850333 -229.8638095 11.05859135 -225.56640625 11.40234375 C-221.42343074 12.09662114 -220.76334017 13.00997958 -218 16 C-215.41968419 17.41365275 -212.72078629 18.51105489 -210 19.625 C-208.58299608 20.22055237 -207.16631904 20.8168832 -205.75 21.4140625 C-205.09128906 21.69024414 -204.43257812 21.96642578 -203.75390625 22.25097656 C-199.62553933 24.01403749 -196.12015396 26.08619019 -192.625 28.9375 C-190.09104457 31.02466688 -190.09104457 31.02466688 -187.4375 32.5 C-184.86471893 34.08324989 -183.13176902 35.86823098 -181 38 C-179.86623288 38.82925413 -178.71920234 39.64054958 -177.5625 40.4375 C-174.35106347 42.67598012 -171.73997348 45.1931979 -169 48 C-165.70881812 50.98717713 -162.41969591 53.96331558 -158.828125 56.5859375 C-155.88836657 58.85985321 -155.15189276 61.54432172 -154 65 C-153.34 65 -152.68 65 -152 65 C-152 65.66 -152 66.32 -152 67 C-150.515 66.505 -150.515 66.505 -149 66 C-148.731875 66.804375 -148.46375 67.60875 -148.1875 68.4375 C-147.795625 69.283125 -147.40375 70.12875 -147 71 C-146.01 71.33 -145.02 71.66 -144 72 C-143.67 71.34 -143.34 70.68 -143 70 C-144.32 70 -145.64 70 -147 70 C-146.34 68.68 -145.68 67.36 -145 66 C-144.01 66.33 -143.02 66.66 -142 67 C-140.64664105 66.02727325 -139.31337396 65.0260734 -138 64 C-137.01 64 -136.02 64 -135 64 C-135.99 63.34 -136.98 62.68 -138 62 C-137.34 62 -136.68 62 -136 62 C-136 61.34 -136 60.68 -136 60 C-135.01 60 -134.02 60 -133 60 C-133 60.99 -133 61.98 -133 63 C-131.68 63 -130.36 63 -129 63 C-128.67 61.35 -128.34 59.7 -128 58 C-127.01 58 -126.02 58 -125 58 C-124.34 58.66 -123.68 59.32 -123 60 C-123 59.34 -123 58.68 -123 58 C-122.25234375 57.93941406 -121.5046875 57.87882812 -120.734375 57.81640625 C-119.74953125 57.73261719 -118.7646875 57.64882812 -117.75 57.5625 C-116.77546875 57.48128906 -115.8009375 57.40007812 -114.796875 57.31640625 C-112.42930342 57.04856645 -110.29931439 56.58465473 -108 56 C-107.01 56 -106.02 56 -105 56 C-103.04173694 54.40771311 -103.04173694 54.40771311 -101.125 52.3125 C-100.41601562 51.57773438 -99.70703125 50.84296875 -98.9765625 50.0859375 C-98.32429688 49.39757812 -97.67203125 48.70921875 -97 48 C-92.89277047 43.79008973 -88.67630911 39.58207342 -84 36 C-83.34 36 -82.68 36 -82 36 C-81.67 35.01 -81.34 34.02 -81 33 C-78.33984375 31.1328125 -78.33984375 31.1328125 -74.9375 29.125 C-73.73279543 28.40932106 -72.52836679 27.69317743 -71.32421875 26.9765625 C-70.22722656 26.32429688 -69.13023437 25.67203125 -68 25 C-66.7470593 24.17109468 -65.49647832 23.33859182 -64.25 22.5 C-51.64845254 14.71900292 -38.30415067 10.32600757 -24.07299805 6.59423828 C-21.88467785 6.01348246 -21.88467785 6.01348246 -19.44140625 4.90625 C-15.77864777 3.54663405 -12.05768764 3.27077778 -8.1875 2.875 C-7.39923828 2.78863281 -6.61097656 2.70226563 -5.79882812 2.61328125 C-3.86656916 2.40248936 -1.93336737 2.20037104 0 2 C0 1.34 0 0.68 0 0 Z M-132 64 C-132 64.66 -132 65.32 -132 66 C-131.34 66 -130.68 66 -130 66 C-130 65.34 -130 64.68 -130 64 C-130.66 64 -131.32 64 -132 64 Z M-182 209 C-182 209.33 -182 209.66 -182 210 C-176.39 210 -170.78 210 -165 210 C-165 209.67 -165 209.34 -165 209 C-170.61 209 -176.22 209 -182 209 Z M-188 210 C-188 210.33 -188 210.66 -188 211 C-186.35 211 -184.7 211 -183 211 C-183 210.67 -183 210.34 -183 210 C-184.65 210 -186.3 210 -188 210 Z M-164 210 C-164 210.33 -164 210.66 -164 211 C-162.35 211 -160.7 211 -159 211 C-159 210.67 -159 210.34 -159 210 C-160.65 210 -162.3 210 -164 210 Z M-226 239 C-225 241 -225 241 -225 241 Z M-233 257 C-232 259 -232 259 -232 259 Z M-234 263 C-234 264.98 -234 266.96 -234 269 C-233.67 269 -233.34 269 -233 269 C-233 267.02 -233 265.04 -233 263 C-233.33 263 -233.66 263 -234 263 Z M-234 274 C-233 277 -233 277 -233 277 Z M-110 513 C-109 515 -109 515 -109 515 Z M-124 520 C-123 523 -123 523 -123 523 Z " fill="#FEFEFE" transform="translate(480,32)"/>
<path d="M0 0 C4.22221333 0.55550574 8.4788202 0.66747552 12.73046875 0.85595703 C13.64828125 0.89914063 14.56609375 0.94232422 15.51171875 0.98681641 C17.75118936 1.09179159 19.99074967 1.19394951 22.23046875 1.29345703 C22.56046875 1.95345703 22.89046875 2.61345703 23.23046875 3.29345703 C25.21882749 4.02779468 25.21882749 4.02779468 27.640625 4.54736328 C28.54876953 4.76199219 29.45691406 4.97662109 30.39257812 5.19775391 C31.34970703 5.41496094 32.30683594 5.63216797 33.29296875 5.85595703 C34.22302734 6.07703125 35.15308594 6.29810547 36.11132812 6.52587891 C40.3075937 7.50196036 44.36665925 8.35204838 48.6640625 8.69580078 C52.80703801 9.39007817 53.46712858 10.30343661 56.23046875 13.29345703 C58.81078456 14.70710978 61.50968246 15.80451192 64.23046875 16.91845703 C65.64747267 17.5140094 67.06414971 18.11034023 68.48046875 18.70751953 C69.13917969 18.98370117 69.79789063 19.25988281 70.4765625 19.54443359 C74.60492942 21.30749452 78.11031479 23.37964722 81.60546875 26.23095703 C84.13942418 28.31812392 84.13942418 28.31812392 86.79296875 29.79345703 C89.36574982 31.37670692 91.09869973 33.16168801 93.23046875 35.29345703 C94.36423587 36.12271116 95.51126641 36.93400661 96.66796875 37.73095703 C99.87940528 39.96943716 102.49049527 42.48665493 105.23046875 45.29345703 C108.52165063 48.28063416 111.81077284 51.25677261 115.40234375 53.87939453 C118.34210218 56.15331024 119.07857599 58.83777876 120.23046875 62.29345703 C120.89046875 62.29345703 121.55046875 62.29345703 122.23046875 62.29345703 C122.23046875 62.95345703 122.23046875 63.61345703 122.23046875 64.29345703 C123.71546875 63.79845703 123.71546875 63.79845703 125.23046875 63.29345703 C125.49859375 64.09783203 125.76671875 64.90220703 126.04296875 65.73095703 C126.43484375 66.57658203 126.82671875 67.42220703 127.23046875 68.29345703 C128.22046875 68.62345703 129.21046875 68.95345703 130.23046875 69.29345703 C130.56046875 68.63345703 130.89046875 67.97345703 131.23046875 67.29345703 C129.91046875 67.29345703 128.59046875 67.29345703 127.23046875 67.29345703 C127.89046875 65.97345703 128.55046875 64.65345703 129.23046875 63.29345703 C130.22046875 63.62345703 131.21046875 63.95345703 132.23046875 64.29345703 C133.5838277 63.32073028 134.91709479 62.31953043 136.23046875 61.29345703 C137.22046875 61.29345703 138.21046875 61.29345703 139.23046875 61.29345703 C138.24046875 60.63345703 137.25046875 59.97345703 136.23046875 59.29345703 C136.89046875 59.29345703 137.55046875 59.29345703 138.23046875 59.29345703 C138.23046875 58.63345703 138.23046875 57.97345703 138.23046875 57.29345703 C139.22046875 57.29345703 140.21046875 57.29345703 141.23046875 57.29345703 C141.23046875 58.28345703 141.23046875 59.27345703 141.23046875 60.29345703 C142.55046875 60.29345703 143.87046875 60.29345703 145.23046875 60.29345703 C145.56046875 58.64345703 145.89046875 56.99345703 146.23046875 55.29345703 C147.22046875 55.29345703 148.21046875 55.29345703 149.23046875 55.29345703 C149.89046875 55.95345703 150.55046875 56.61345703 151.23046875 57.29345703 C151.23046875 56.63345703 151.23046875 55.97345703 151.23046875 55.29345703 C151.978125 55.23287109 152.72578125 55.17228516 153.49609375 55.10986328 C154.4809375 55.02607422 155.46578125 54.94228516 156.48046875 54.85595703 C157.455 54.77474609 158.42953125 54.69353516 159.43359375 54.60986328 C161.79508628 54.34271119 163.9494794 53.93973735 166.23046875 53.29345703 C166.890625 55.07861328 166.890625 55.07861328 167.23046875 57.29345703 C166.2265625 59.03955078 166.2265625 59.03955078 164.66796875 60.73095703 C164.11367188 61.33423828 163.559375 61.93751953 162.98828125 62.55908203 C161.39664276 64.12949867 159.77591098 65.57022014 158.04296875 66.98095703 C154.55562951 69.84832485 152.4547935 71.59685027 151.84850121 76.18234348 C151.84519106 77.31040881 151.84188091 78.43847414 151.83847046 79.60072327 C151.82737747 80.89766617 151.81628448 82.19460907 151.80485535 83.53085327 C151.80762415 84.96612603 151.81066995 86.40139828 151.81396484 87.83666992 C151.80658487 89.34962132 151.79787988 90.86256674 151.78794861 92.37550354 C151.76461386 96.48280613 151.75947549 100.58995763 151.75728941 104.69731832 C151.75163131 108.99344916 151.72836 113.28948136 151.70669556 117.58555603 C151.66815781 125.72396647 151.64394817 133.86234871 151.62557089 142.00082725 C151.59217682 156.5815459 151.53447046 171.16217988 151.47157919 185.74279779 C151.45006663 190.86172486 151.43480878 195.98062269 151.4247396 201.0995847 C151.41772994 204.28022998 151.40685098 207.46085429 151.39509773 210.64148521 C151.39053356 212.11893915 151.38769076 213.59639953 151.38667488 215.07386017 C151.38510653 217.08697343 151.37698279 219.10007844 151.36849976 221.11317444 C151.36594366 222.24086274 151.36338757 223.36855104 151.36075401 224.53041172 C151.23046875 227.29345703 151.23046875 227.29345703 150.23046875 230.29345703 C149.57046875 230.29345703 148.91046875 230.29345703 148.23046875 230.29345703 C147.96234375 230.93283203 147.69421875 231.57220703 147.41796875 232.23095703 C146.23046875 234.29345703 146.23046875 234.29345703 143.23046875 235.29345703 C143.23046875 235.95345703 143.23046875 236.61345703 143.23046875 237.29345703 C136.54873256 237.91856749 130.9227978 237.15090259 124.60546875 234.91845703 C123.95553955 234.68916504 123.30561035 234.45987305 122.63598633 234.22363281 C120.83358028 233.58183058 119.03199496 232.93772481 117.23046875 232.29345703 C104.81073462 228.20152476 90.1076867 228.98344734 78.23046875 234.29345703 C70.89072027 238.27823797 65.89765937 244.42400216 63.1953125 252.31689453 C62.46341939 254.96532634 61.80301237 257.60651985 61.23046875 260.29345703 C60.57046875 260.29345703 59.91046875 260.29345703 59.23046875 260.29345703 C59.23046875 264.91345703 59.23046875 269.53345703 59.23046875 274.29345703 C59.89046875 274.29345703 60.55046875 274.29345703 61.23046875 274.29345703 C61.38902344 274.98310547 61.54757812 275.67275391 61.7109375 276.38330078 C64.51745288 287.68689035 68.28530446 294.87090907 78.23046875 301.29345703 C79.55134303 301.98448045 80.88102119 302.66004287 82.23046875 303.29345703 C82.23046875 303.95345703 82.23046875 304.61345703 82.23046875 305.29345703 C88.64855298 306.88664444 94.69387854 307.67271899 101.29296875 307.91845703 C102.15857422 307.95712891 103.02417969 307.99580078 103.91601562 308.03564453 C106.02053234 308.12866184 108.12546965 308.21208372 110.23046875 308.29345703 C110.23046875 307.63345703 110.23046875 306.97345703 110.23046875 306.29345703 C135.31320323 297.97800531 135.31320323 297.97800531 144.10546875 301.41845703 C148.39494207 305.20328643 150.95518198 307.53058476 151.84570789 313.23330498 C151.86656727 314.75459307 151.86013855 316.27641084 151.83174133 317.7975769 C151.83601346 318.63983169 151.84028558 319.48208647 151.84468716 320.34986413 C151.85290603 323.16477785 151.82545097 325.97819292 151.7980957 328.79296875 C151.79668499 330.81353215 151.79747766 332.83409812 151.80030823 334.85466003 C151.80174288 340.33575961 151.77234468 345.81631216 151.73743844 351.2972846 C151.70618339 357.02678498 151.70324486 362.75629788 151.6973114 368.48587036 C151.68177051 379.33370228 151.6407385 390.18128228 151.59056395 401.02900326 C151.53467831 413.37953689 151.50718591 425.73008254 151.48208678 438.08071113 C151.42982305 463.48509943 151.34187577 488.88926412 151.23046875 514.29345703 C152.90109375 513.39626953 152.90109375 513.39626953 154.60546875 512.48095703 C155.54519531 511.97628906 155.54519531 511.97628906 156.50390625 511.46142578 C158.86659406 509.86313697 159.9735176 507.84161948 161.16796875 505.29345703 C162.27454122 503.21049709 163.49453741 501.87157643 165.23046875 500.29345703 C167.23046875 501.29345703 169.23046875 502.29345703 171.23046875 503.29345703 C170.90046875 504.28345703 170.57046875 505.27345703 170.23046875 506.29345703 C169.57046875 506.29345703 168.91046875 506.29345703 168.23046875 506.29345703 C167.84913576 508.28486263 167.51721293 510.2862478 167.23046875 512.29345703 C167.56046875 512.62345703 167.89046875 512.95345703 168.23046875 513.29345703 C167.10546875 514.85595703 167.10546875 514.85595703 165.23046875 516.29345703 C162.04296875 515.98095703 162.04296875 515.98095703 159.23046875 515.29345703 C159.23046875 516.61345703 159.23046875 517.93345703 159.23046875 519.29345703 C158.24046875 519.29345703 157.25046875 519.29345703 156.23046875 519.29345703 C155.57046875 519.95345703 154.91046875 520.61345703 154.23046875 521.29345703 C153.90046875 520.96345703 153.57046875 520.63345703 153.23046875 520.29345703 C152.24046875 520.62345703 151.25046875 520.95345703 150.23046875 521.29345703 C150.23046875 522.61345703 150.23046875 523.93345703 150.23046875 525.29345703 C150.23046875 525.95345703 150.23046875 526.61345703 150.23046875 527.29345703 C148.91046875 527.62345703 147.59046875 527.95345703 146.23046875 528.29345703 C146.23046875 527.63345703 146.23046875 526.97345703 146.23046875 526.29345703 C145.57046875 525.96345703 144.91046875 525.63345703 144.23046875 525.29345703 C144.23046875 524.63345703 144.23046875 523.97345703 144.23046875 523.29345703 C143.59109375 523.00470703 142.95171875 522.71595703 142.29296875 522.41845703 C140.23046875 521.29345703 140.23046875 521.29345703 139.23046875 519.29345703 C137.91046875 519.29345703 136.59046875 519.29345703 135.23046875 519.29345703 C135.23046875 518.63345703 135.23046875 517.97345703 135.23046875 517.29345703 C134.24046875 516.96345703 133.25046875 516.63345703 132.23046875 516.29345703 C131.19560998 513.97537339 130.19492735 511.64170405 129.23046875 509.29345703 C128.57046875 508.96345703 127.91046875 508.63345703 127.23046875 508.29345703 C126.57046875 508.95345703 125.91046875 509.61345703 125.23046875 510.29345703 C123.23046875 508.29345703 123.23046875 508.29345703 122.35546875 505.41845703 C121.15018989 502.0704602 119.78729598 500.67982911 117.23046875 498.29345703 C117.23046875 497.63345703 117.23046875 496.97345703 117.23046875 496.29345703 C116.24046875 496.62345703 115.25046875 496.95345703 114.23046875 497.29345703 C114.23046875 496.30345703 114.23046875 495.31345703 114.23046875 494.29345703 C113.63234375 494.06658203 113.03421875 493.83970703 112.41796875 493.60595703 C110.23046875 492.29345703 110.23046875 492.29345703 108.79296875 489.85595703 C106.95740214 486.84562779 105.23537277 486.05242524 102.23046875 484.29345703 C98.23046875 479.8610246 98.23046875 479.8610246 98.23046875 477.29345703 C97.36421875 476.89126953 97.36421875 476.89126953 96.48046875 476.48095703 C94.23046875 475.29345703 94.23046875 475.29345703 92.16796875 473.73095703 C90.18865379 472.10656975 90.18865379 472.10656975 87.23046875 471.29345703 C87.23046875 470.30345703 87.23046875 469.31345703 87.23046875 468.29345703 C85.34408216 466.15555223 83.78758698 464.57201615 81.23046875 463.29345703 C81.23046875 462.63345703 81.23046875 461.97345703 81.23046875 461.29345703 C80.24046875 460.96345703 79.25046875 460.63345703 78.23046875 460.29345703 C77.94171875 459.67470703 77.65296875 459.05595703 77.35546875 458.41845703 C75.87088752 455.61424805 73.99072628 454.74622415 71.23046875 453.29345703 C70.90046875 453.95345703 70.57046875 454.61345703 70.23046875 455.29345703 C70.23046875 454.30345703 70.23046875 453.31345703 70.23046875 452.29345703 C68.75110235 449.10114005 67.86667557 447.60380182 64.66796875 446.04345703 C63.46140625 445.67220703 63.46140625 445.67220703 62.23046875 445.29345703 C61.57046875 444.96345703 60.91046875 444.63345703 60.23046875 444.29345703 C60.10671875 443.69533203 59.98296875 443.09720703 59.85546875 442.48095703 C59.01897404 439.55322553 57.52364103 438.23917896 55.23046875 436.29345703 C54.57046875 436.29345703 53.91046875 436.29345703 53.23046875 436.29345703 C51.93359375 434.50048828 51.93359375 434.50048828 50.48046875 432.10595703 C48.59813178 429.17482404 46.91224676 426.76166895 44.16796875 424.60595703 C41.01644458 422.12496992 38.78501343 419.37201087 36.23046875 416.29345703 C35.40546875 415.63345703 34.58046875 414.97345703 33.73046875 414.29345703 C31.64689595 412.62659879 30.29331605 411.22623618 28.66796875 409.16845703 C26.54868634 406.27613465 26.54868634 406.27613465 24.16796875 405.29345703 C22.23046875 404.29345703 22.23046875 404.29345703 20.41796875 401.54345703 C18.19716367 398.2439752 16.00199029 396.27820379 12.9609375 393.80126953 C11.30148734 392.35533779 9.97408463 390.88678233 8.60546875 389.16845703 C5.54825296 385.46761686 2.20423143 382.94263215 -1.76953125 380.29345703 C-2.05828125 379.65408203 -2.34703125 379.01470703 -2.64453125 378.35595703 C-3.64968371 376.08810688 -3.64968371 376.08810688 -6.14453125 374.91845703 C-9.40748365 372.89853412 -10.65731955 370.46177458 -12.76953125 367.29345703 C-15.36977174 365.43035381 -15.36977174 365.43035381 -17.76953125 364.29345703 C-18.09953125 364.95345703 -18.42953125 365.61345703 -18.76953125 366.29345703 C-18.98609375 364.80845703 -18.98609375 364.80845703 -19.20703125 363.29345703 C-20.75645231 357.74697874 -25.49056101 354.8019134 -29.76953125 351.29345703 C-32.90107493 348.31467158 -35.74790378 345.17550662 -38.58203125 341.91845703 C-41.81544513 338.24578693 -45.2193218 335.01539915 -48.94921875 331.85595703 C-51.35315228 329.79249477 -53.5621095 327.56394798 -55.76953125 325.29345703 C-56.66671875 324.45814453 -56.66671875 324.45814453 -57.58203125 323.60595703 C-58.76953125 322.29345703 -58.76953125 322.29345703 -58.76953125 320.29345703 C-59.42953125 320.29345703 -60.08953125 320.29345703 -60.76953125 320.29345703 C-62.47946559 318.67121164 -64.14300809 316.99932278 -65.76953125 315.29345703 C-67.76087696 313.2255211 -69.32707377 311.92176202 -71.76953125 310.29345703 C-71.76953125 309.63345703 -71.76953125 308.97345703 -71.76953125 308.29345703 C-73.42401809 306.65876803 -73.42401809 306.65876803 -75.51953125 304.98095703 C-78.69286867 302.29112286 -81.17974467 299.55157564 -83.76953125 296.29345703 C-85.4946543 294.73084558 -87.27005961 293.2406891 -89.0546875 291.74658203 C-92.29100527 289.00418975 -95.16012492 285.99619587 -97.9375 282.79345703 C-98.72769531 281.88595703 -99.51789063 280.97845703 -100.33203125 280.04345703 C-101.44771484 278.73634766 -101.44771484 278.73634766 -102.5859375 277.40283203 C-104.54032641 275.14908612 -104.54032641 275.14908612 -106.921875 274.80908203 C-107.53160156 274.63892578 -108.14132813 274.46876953 -108.76953125 274.29345703 C-109.48698809 272.64801548 -110.14840232 270.9776248 -110.76953125 269.29345703 C-112.52000029 267.25603873 -112.52000029 267.25603873 -114.58203125 265.41845703 C-117.26888185 262.85351435 -119.5591817 260.36856951 -121.64453125 257.29345703 C-122.69640625 255.80845703 -122.69640625 255.80845703 -123.76953125 254.29345703 C-124.42953125 254.29345703 -125.08953125 254.29345703 -125.76953125 254.29345703 C-126.09953125 253.30345703 -126.42953125 252.31345703 -126.76953125 251.29345703 C-127.75953125 250.30345703 -127.75953125 250.30345703 -128.76953125 249.29345703 C-129.75549629 247.72718114 -130.71017674 246.14105801 -131.64453125 244.54345703 C-133.4013331 241.56378331 -135.17416318 238.63641667 -137.14453125 235.79345703 C-138.76953125 233.29345703 -138.76953125 233.29345703 -138.76953125 231.29345703 C-139.75953125 231.29345703 -140.74953125 231.29345703 -141.76953125 231.29345703 C-141.98609375 229.96314453 -141.98609375 229.96314453 -142.20703125 228.60595703 C-142.67973103 225.82228057 -143.2002331 223.05861946 -143.76953125 220.29345703 C-144.42953125 220.29345703 -145.08953125 220.29345703 -145.76953125 220.29345703 C-152.10149846 203.96148982 -152.10149846 203.96148982 -154.03125 195.62548828 C-154.67606009 193.20437994 -154.67606009 193.20437994 -156.27490234 191.06982422 C-158.07766546 187.72107836 -158.2520635 185.32942292 -158.421875 181.53955078 C-158.45417709 180.89030136 -158.48647919 180.24105194 -158.51976013 179.5721283 C-158.61877476 177.47957335 -158.69619903 175.38705883 -158.76953125 173.29345703 C-158.81028778 172.24995087 -158.81028778 172.24995087 -158.85186768 171.18536377 C-159.04442573 166.2430405 -159.19345428 161.30004388 -159.33203125 156.35595703 C-159.37539748 154.88264225 -159.41901621 153.40933489 -159.46289062 151.93603516 C-159.56799806 148.38858926 -159.66974798 144.84105717 -159.76953125 141.29345703 C-160.09953125 141.29345703 -160.42953125 141.29345703 -160.76953125 141.29345703 C-160.76953125 138.98345703 -160.76953125 136.67345703 -160.76953125 134.29345703 C-160.10953125 134.29345703 -159.44953125 134.29345703 -158.76953125 134.29345703 C-158.43361229 132.02300474 -158.1008806 129.75208071 -157.76953125 127.48095703 C-157.58390625 126.21638672 -157.39828125 124.95181641 -157.20703125 123.64892578 C-156.70488633 120.36163196 -156.70488633 120.36163196 -156.76953125 117.29345703 C-155.77953125 116.79845703 -155.77953125 116.79845703 -154.76953125 116.29345703 C-153.88178001 114.16182711 -153.88178001 114.16182711 -153.140625 111.54345703 C-152.83189453 110.54975098 -152.52316406 109.55604492 -152.20507812 108.53222656 C-151.87572266 107.46343262 -151.54636719 106.39463867 -151.20703125 105.29345703 C-148.15924404 95.7083664 -144.44790968 87.07992326 -139.45703125 78.36376953 C-137.60897728 75.58525378 -137.60897728 75.58525378 -137.76953125 73.29345703 C-136.60453935 72.1627296 -135.43759328 71.03395676 -134.26171875 69.91455078 C-132.50418476 68.00518794 -131.17149216 65.9763029 -129.76953125 63.79345703 C-127.43047022 60.16761178 -124.91493694 57.26884079 -121.76953125 54.29345703 C-119.96571533 52.02198513 -118.38044747 49.70983137 -116.76953125 47.29345703 C-116.17140625 47.02533203 -115.57328125 46.75720703 -114.95703125 46.48095703 C-110.85869572 44.25614631 -108.22525986 40.66064286 -106.76953125 36.29345703 C-105.44953125 36.29345703 -104.12953125 36.29345703 -102.76953125 36.29345703 C-100.41401426 34.7146047 -100.41401426 34.7146047 -98.08203125 32.60595703 C-86.91695576 23.29345703 -86.91695576 23.29345703 -81.76953125 23.29345703 C-81.43953125 21.64345703 -81.10953125 19.99345703 -80.76953125 18.29345703 C-79.84140625 18.23158203 -78.91328125 18.16970703 -77.95703125 18.10595703 C-72.48844094 17.36330896 -67.67456445 14.69718939 -62.76953125 12.29345703 C-62.76953125 11.63345703 -62.76953125 10.97345703 -62.76953125 10.29345703 C-62.18179932 10.17808594 -61.59406738 10.06271484 -60.98852539 9.94384766 C-54.37767306 8.63525449 -47.78688922 7.24976362 -41.20703125 5.79345703 C-40.21123047 5.58076172 -39.21542969 5.36806641 -38.18945312 5.14892578 C-37.24521484 4.93880859 -36.30097656 4.72869141 -35.328125 4.51220703 C-34.04893188 4.23280273 -34.04893188 4.23280273 -32.74389648 3.94775391 C-32.09235596 3.73183594 -31.44081543 3.51591797 -30.76953125 3.29345703 C-30.43953125 2.63345703 -30.10953125 1.97345703 -29.76953125 1.29345703 C-28.53976563 1.23287109 -27.31 1.17228516 -26.04296875 1.10986328 C-24.41014698 1.02540698 -22.77733498 0.94076157 -21.14453125 0.85595703 C-20.33628906 0.81664062 -19.52804688 0.77732422 -18.6953125 0.73681641 C-15.28604852 0.55665205 -12.04098183 0.34602911 -8.68359375 -0.30419922 C-5.6426904 -0.72405585 -3.02424491 -0.44859633 0 0 Z M142.23046875 61.29345703 C142.23046875 61.95345703 142.23046875 62.61345703 142.23046875 63.29345703 C142.89046875 63.29345703 143.55046875 63.29345703 144.23046875 63.29345703 C144.23046875 62.63345703 144.23046875 61.97345703 144.23046875 61.29345703 C143.57046875 61.29345703 142.91046875 61.29345703 142.23046875 61.29345703 Z M92.23046875 206.29345703 C92.23046875 206.62345703 92.23046875 206.95345703 92.23046875 207.29345703 C97.84046875 207.29345703 103.45046875 207.29345703 109.23046875 207.29345703 C109.23046875 206.96345703 109.23046875 206.63345703 109.23046875 206.29345703 C103.62046875 206.29345703 98.01046875 206.29345703 92.23046875 206.29345703 Z M86.23046875 207.29345703 C86.23046875 207.62345703 86.23046875 207.95345703 86.23046875 208.29345703 C87.88046875 208.29345703 89.53046875 208.29345703 91.23046875 208.29345703 C91.23046875 207.96345703 91.23046875 207.63345703 91.23046875 207.29345703 C89.58046875 207.29345703 87.93046875 207.29345703 86.23046875 207.29345703 Z M110.23046875 207.29345703 C110.23046875 207.62345703 110.23046875 207.95345703 110.23046875 208.29345703 C111.88046875 208.29345703 113.53046875 208.29345703 115.23046875 208.29345703 C115.23046875 207.96345703 115.23046875 207.63345703 115.23046875 207.29345703 C113.58046875 207.29345703 111.93046875 207.29345703 110.23046875 207.29345703 Z M48.23046875 236.29345703 C49.23046875 238.29345703 49.23046875 238.29345703 49.23046875 238.29345703 Z M41.23046875 254.29345703 C42.23046875 256.29345703 42.23046875 256.29345703 42.23046875 256.29345703 Z M40.23046875 260.29345703 C40.23046875 262.27345703 40.23046875 264.25345703 40.23046875 266.29345703 C40.56046875 266.29345703 40.89046875 266.29345703 41.23046875 266.29345703 C41.23046875 264.31345703 41.23046875 262.33345703 41.23046875 260.29345703 C40.90046875 260.29345703 40.57046875 260.29345703 40.23046875 260.29345703 Z M40.23046875 271.29345703 C41.23046875 274.29345703 41.23046875 274.29345703 41.23046875 274.29345703 Z M164.23046875 510.29345703 C165.23046875 512.29345703 165.23046875 512.29345703 165.23046875 512.29345703 Z M150.23046875 517.29345703 C151.23046875 520.29345703 151.23046875 520.29345703 151.23046875 520.29345703 Z " fill="#383B3F" transform="translate(205.76953125,34.70654296875)"/>
<path d="M0 0 C0.66 0.33 1.32 0.66 2 1 C1.73106217 4.5794345 1.11177767 5.88185064 -1.3984375 8.53515625 C-2.38070312 9.36917969 -3.36296875 10.20320313 -4.375 11.0625 C-10.57896616 15.9312322 -10.57896616 15.9312322 -13.38476086 22.89726639 C-13.38936982 24.02922817 -13.39397879 25.16118996 -13.39872742 26.32745361 C-13.41126556 27.62873199 -13.42380371 28.93001038 -13.4367218 30.27072144 C-13.43554776 31.71075465 -13.43408862 33.15078765 -13.43237305 34.59082031 C-13.44139004 36.10864053 -13.45171711 37.62645345 -13.46325684 39.14425659 C-13.49086052 43.26374223 -13.50011589 47.38308983 -13.50611091 51.50265598 C-13.51548583 55.80820256 -13.54168849 60.11364567 -13.56611633 64.41912842 C-13.60980933 72.57173039 -13.63833907 80.72431231 -13.66143972 88.8769958 C-13.6884764 98.15871263 -13.73238883 107.44032552 -13.77772844 116.72196817 C-13.87061481 135.8145906 -13.94227725 154.90724052 -14 174 C-14.33 174 -14.66 174 -15 174 C-15.495 99.255 -15.495 99.255 -16 23 C-16.99 23 -17.98 23 -19 23 C-21.66666667 23 -24.33333333 23 -27 23 C-27.33 23.99 -27.66 24.98 -28 26 C-28.66 26 -29.32 26 -30 26 C-30 25.01 -30 24.02 -30 23 C-30.66 23 -31.32 23 -32 23 C-32 22.34 -32 21.68 -32 21 C-32.66 20.67 -33.32 20.34 -34 20 C-32.68 19.67 -31.36 19.34 -30 19 C-30 18.34 -30 17.68 -30 17 C-31.32 17 -32.64 17 -34 17 C-34 16.01 -34 15.02 -34 14 C-35.32 14 -36.64 14 -38 14 C-37.34 12.68 -36.68 11.36 -36 10 C-35.01 10.33 -34.02 10.66 -33 11 C-31.64664105 10.02727325 -30.31337396 9.0260734 -29 8 C-28.01 8 -27.02 8 -26 8 C-26.99 7.34 -27.98 6.68 -29 6 C-28.34 6 -27.68 6 -27 6 C-27 5.34 -27 4.68 -27 4 C-26.01 4 -25.02 4 -24 4 C-24 4.99 -24 5.98 -24 7 C-22.68 7 -21.36 7 -20 7 C-19.67 5.35 -19.34 3.7 -19 2 C-18.01 2 -17.02 2 -16 2 C-15.34 2.66 -14.68 3.32 -14 4 C-14 3.34 -14 2.68 -14 2 C-13.24074219 1.93941406 -12.48148437 1.87882812 -11.69921875 1.81640625 C-10.70535156 1.73261719 -9.71148437 1.64882812 -8.6875 1.5625 C-7.70136719 1.48128906 -6.71523438 1.40007812 -5.69921875 1.31640625 C-2.90624401 1.08187441 -2.90624401 1.08187441 0 0 Z M-23 8 C-23 8.66 -23 9.32 -23 10 C-22.34 10 -21.68 10 -21 10 C-21 9.34 -21 8.68 -21 8 C-21.66 8 -22.32 8 -23 8 Z " fill="#555757" transform="translate(371,88)"/>
<path d="M0 0 C2.46800047 1.15173355 4.04783565 2.04783565 6 4 C7.27465794 8.35175642 7.1372279 12.77491603 7.12025452 17.26997375 C7.12110894 18.09912346 7.12196337 18.92827316 7.12284368 19.78254861 C7.12448972 22.55858634 7.11899144 25.33456354 7.11352539 28.1105957 C7.1132433 30.10145567 7.11340167 32.09231575 7.1139679 34.08317566 C7.11425503 39.48767499 7.10837178 44.89215217 7.10139394 50.29664636 C7.09514651 55.94476729 7.0945555 61.59288872 7.09336853 67.24101257 C7.09025932 77.93647309 7.08205144 88.63192339 7.07201904 99.32737941 C7.06084518 111.50380403 7.05534424 123.68022915 7.05032361 135.85665762 C7.03986851 160.90444408 7.02227698 185.95222147 7 211 C6.67 211 6.34 211 6 211 C4.97274972 199.31944337 4.87873091 187.70556278 4.92466354 175.98644829 C4.9378848 172.60872357 4.94484126 169.23103241 4.9503479 165.85328674 C4.95873776 161.01202608 4.96954581 156.17078007 4.98223877 151.32952881 C5.01395183 138.69756955 5.02066342 126.06558836 5.0234375 113.43359375 C5.0237434 112.17548637 5.0240493 110.917379 5.02436447 109.62114716 C5.02665751 87.01300389 4.92623424 64.40778721 4.65301514 41.80126572 C4.62507409 39.38141674 4.60104262 36.96155786 4.578125 34.54165649 C4.54214451 30.80141813 4.49633096 27.06143944 4.44193649 23.32142448 C4.41510538 21.35006075 4.39690748 19.37858528 4.37905884 17.40711975 C4.35918915 16.24329269 4.33931946 15.07946564 4.31884766 13.88037109 C4.30552399 12.88137787 4.29220032 11.88238464 4.2784729 10.8531189 C3.96813729 7.67354774 3.1116878 4.98599724 2 2 C1.34 2 0.68 2 0 2 C0 1.34 0 0.68 0 0 Z " fill="#17191B" transform="translate(349,337)"/>
<path d="M0 0 C2.54295954 2.54295954 2.23893345 4.15612004 2.25816262 7.62365115 C2.24942409 8.81137922 2.24942409 8.81137922 2.24050903 10.02310181 C2.24221788 10.86193889 2.24392673 11.70077597 2.24568737 12.56503236 C2.24899662 15.39191031 2.23795507 18.21855387 2.22705078 21.04541016 C2.22648698 23.06538385 2.22680262 25.08535796 2.22793579 27.10533142 C2.22851151 32.60300716 2.21672188 38.10059628 2.20278788 43.59825182 C2.19031688 49.33847653 2.18911289 55.07870304 2.18673706 60.81893921 C2.18051159 71.69513539 2.16408637 82.57129154 2.14403808 93.44747007 C2.12171223 105.82696094 2.110694 118.20645369 2.10064721 130.58595967 C2.07972104 156.05732867 2.04452438 181.5286621 2 207 C3.11375 206.401875 4.2275 205.80375 5.375 205.1875 C6.00148438 204.85105469 6.62796875 204.51460937 7.2734375 204.16796875 C9.63612531 202.56967994 10.74304885 200.54816245 11.9375 198 C13.04407247 195.91704006 14.26406866 194.5781194 16 193 C18 194 20 195 22 196 C21.67 196.99 21.34 197.98 21 199 C20.34 199 19.68 199 19 199 C18.61866701 200.9914056 18.28674418 202.99279077 18 205 C18.33 205.33 18.66 205.66 19 206 C17.875 207.5625 17.875 207.5625 16 209 C12.8125 208.6875 12.8125 208.6875 10 208 C10 208.66 10 209.32 10 210 C6.02958963 210.22057835 4.76687864 209.88343932 1 208 C0.67 139.36 0.34 70.72 0 0 Z M15 203 C16 205 16 205 16 205 Z " fill="#555859" transform="translate(355,342)"/>
<path d="M0 0 C0.66 0.33 1.32 0.66 2 1 C1.72651404 4.5553175 1.10972763 5.88229218 -1.36328125 8.53515625 C-2.33652344 9.36917969 -3.30976563 10.20320313 -4.3125 11.0625 C-7.65146493 13.95567522 -10.91907545 16.83125812 -14 20 C-14 19.34 -14 18.68 -14 18 C-15.98 17.67 -17.96 17.34 -20 17 C-20 16.34 -20 15.68 -20 15 C-20.99 14.67 -21.98 14.34 -23 14 C-24.6875 12.625 -24.6875 12.625 -26 11 C-26 10.01 -26 9.02 -26 8 C-26.99 7.34 -27.98 6.68 -29 6 C-28.34 6 -27.68 6 -27 6 C-27 5.34 -27 4.68 -27 4 C-26.01 4 -25.02 4 -24 4 C-24 4.99 -24 5.98 -24 7 C-22.68 7 -21.36 7 -20 7 C-19.67 5.35 -19.34 3.7 -19 2 C-18.01 2 -17.02 2 -16 2 C-15.34 2.66 -14.68 3.32 -14 4 C-14 3.34 -14 2.68 -14 2 C-13.24074219 1.93941406 -12.48148437 1.87882812 -11.69921875 1.81640625 C-10.70535156 1.73261719 -9.71148437 1.64882812 -8.6875 1.5625 C-7.70136719 1.48128906 -6.71523438 1.40007812 -5.69921875 1.31640625 C-2.90624401 1.08187441 -2.90624401 1.08187441 0 0 Z M-23 8 C-23 8.66 -23 9.32 -23 10 C-22.34 10 -21.68 10 -21 10 C-21 9.34 -21 8.68 -21 8 C-21.66 8 -22.32 8 -23 8 Z " fill="#626162" transform="translate(371,88)"/>
<path d="M0 0 C0.99386719 0.02707031 1.98773438 0.05414063 3.01171875 0.08203125 C4.15060547 0.13423828 4.15060547 0.13423828 5.3125 0.1875 C5.3125 0.8475 5.3125 1.5075 5.3125 2.1875 C6.611875 2.06375 7.91125 1.94 9.25 1.8125 C15.15969911 1.75621715 18.82468289 4.62270911 23.3125 8.1875 C22.9825 9.1775 22.6525 10.1675 22.3125 11.1875 C21.52875 11.001875 20.745 10.81625 19.9375 10.625 C17.34160225 9.92787734 17.34160225 9.92787734 15.3125 11.1875 C14.714375 10.878125 14.11625 10.56875 13.5 10.25 C10.9331622 9.00325021 9.12880106 9.11138376 6.3125 9.1875 C5.9825 8.8575 5.6525 8.5275 5.3125 8.1875 C4.6525 8.8475 3.9925 9.5075 3.3125 10.1875 C-1.53610624 10.42993031 -5.9125791 10.14248418 -10.6875 9.1875 C-8.72104312 2.38053387 -7.37087551 -0.26014855 0 0 Z " fill="#414347" transform="translate(316.6875,241.8125)"/>
<path d="M0 0 C-0.33 0.99 -0.66 1.98 -1 3 C-0.34 3.66 0.32 4.32 1 5 C-2.4019487 7.09350689 -5.05272412 7.17942163 -9 7 C-9 7.66 -9 8.32 -9 9 C-10.32 8.67 -11.64 8.34 -13 8 C-12.67 8.99 -12.34 9.98 -12 11 C-9.49552484 12.21869929 -9.49552484 12.21869929 -7 13 C-7.66 13.66 -8.32 14.32 -9 15 C-10.9453125 14.7578125 -10.9453125 14.7578125 -13.125 14.125 C-13.84945313 13.92132813 -14.57390625 13.71765625 -15.3203125 13.5078125 C-15.87460937 13.34023438 -16.42890625 13.17265625 -17 13 C-17.33 13.99 -17.66 14.98 -18 16 C-21.0625 17.1875 -21.0625 17.1875 -24 18 C-24 18.66 -24 19.32 -24 20 C-24.99 20 -25.98 20 -27 20 C-27.33 20.66 -27.66 21.32 -28 22 C-30.5625 22.625 -30.5625 22.625 -33 23 C-32.67 21.68 -32.34 20.36 -32 19 C-31.34 19 -30.68 19 -30 19 C-28.97388051 17.34928604 -27.97691857 15.68029994 -27 14 C-25.32058788 11.95549829 -24.52260953 11.12669322 -21.9375 10.5 C-19.60312807 10.12732749 -19.60312807 10.12732749 -18 7 C-17.34 7 -16.68 7 -16 7 C-15.67 6.34 -15.34 5.68 -15 5 C-13.66923011 4.65657551 -12.33568021 4.32380126 -11 4 C-10.34 3.34 -9.68 2.68 -9 2 C-5.81720186 0.78105603 -3.42085146 0 0 0 Z " fill="#3F403F" transform="translate(291,244)"/>
<path d="M0 0 C2.97 0 5.94 0 9 0 C9.33 1.32 9.66 2.64 10 4 C11.32 4 12.64 4 14 4 C14.66 5.65 15.32 7.3 16 9 C16.66 8.01 17.32 7.02 18 6 C20.50357861 6.8345262 22.66785852 7.79371992 25 9 C24.01 9.33 23.02 9.66 22 10 C21.34 10.66 20.68 11.32 20 12 C19.67 11.67 19.34 11.34 19 11 C18.01 11.33 17.02 11.66 16 12 C16 13.32 16 14.64 16 16 C16 16.66 16 17.32 16 18 C14.68 18.33 13.36 18.66 12 19 C12 18.34 12 17.68 12 17 C11.34 16.67 10.68 16.34 10 16 C10 15.34 10 14.68 10 14 C8.68 13.34 7.36 12.68 6 12 C6 10.35 6 8.7 6 7 C4.02 7 2.04 7 0 7 C0 4.66666667 0 2.33333333 0 0 Z " fill="#515455" transform="translate(340,544)"/>
<path d="M0 0 C0.66 0.33 1.32 0.66 2 1 C1.69404824 4.56943715 0.97575359 6.03014419 -1.3125 8.875 C-4 11 -4 11 -6.125 10.8125 C-6.74375 10.544375 -7.3625 10.27625 -8 10 C-8.99 10 -9.98 10 -11 10 C-11.33 9.01 -11.66 8.02 -12 7 C-14.00016466 5.79117904 -14.00016466 5.79117904 -16 5 C-15.34 4.67 -14.68 4.34 -14 4 C-14 3.34 -14 2.68 -14 2 C-13.24074219 1.93941406 -12.48148437 1.87882812 -11.69921875 1.81640625 C-10.70535156 1.73261719 -9.71148437 1.64882812 -8.6875 1.5625 C-7.70136719 1.48128906 -6.71523438 1.40007812 -5.69921875 1.31640625 C-2.90624401 1.08187441 -2.90624401 1.08187441 0 0 Z " fill="#BDBEBD" transform="translate(371,88)"/>
<path d="M0 0 C2 1 4 2 6 3 C5.67 3.99 5.34 4.98 5 6 C4.34 6 3.68 6 3 6 C2.61866701 7.9914056 2.28674418 9.99279077 2 12 C2.33 12.33 2.66 12.66 3 13 C1.875 14.5625 1.875 14.5625 0 16 C-3.1875 15.6875 -3.1875 15.6875 -6 15 C-7.22993056 11.31020833 -6.59260576 10.43667559 -5 7 C-4.5359375 5.948125 -4.5359375 5.948125 -4.0625 4.875 C-2.93789342 2.89040015 -1.68147628 1.5286148 0 0 Z M-1 10 C0 12 0 12 0 12 Z " fill="#9C9C9C" transform="translate(371,535)"/>
<path d="M0 0 C0.66 0.33 1.32 0.66 2 1 C-0.95418191 5.06200013 -4.33296225 8.09843897 -8.1953125 11.25390625 C-10.07113554 13.06882594 -10.88061347 14.67362278 -12 17 C-12.7425 17.433125 -13.485 17.86625 -14.25 18.3125 C-16.79467034 19.87400225 -17.96959055 20.99532331 -19.8125 23.25 C-22.62542453 26.6864078 -25.74099118 29.49731247 -29.11328125 32.375 C-33.20746786 35.90125597 -36.70370155 39.72702052 -40 44 C-40.99 43.67 -41.98 43.34 -43 43 C-28.66666667 28.66666667 -14.33333333 14.33333333 0 0 Z " fill="#E4E3E4" transform="translate(562,341)"/>
<path d="M0 0 C0.33 0.66 0.66 1.32 1 2 C1.66 2.33 2.32 2.66 3 3 C2.01 4.485 2.01 4.485 1 6 C1.99 5.67 2.98 5.34 4 5 C4 5.66 4 6.32 4 7 C4.99 7 5.98 7 7 7 C7 7.66 7 8.32 7 9 C6.54625 9.433125 6.0925 9.86625 5.625 10.3125 C3.65690769 12.35628817 2.93273129 14.34530324 2 17 C1.34 17 0.68 17 0 17 C0 16.01 0 15.02 0 14 C-0.66 14 -1.32 14 -2 14 C-2 13.34 -2 12.68 -2 12 C-2.66 11.67 -3.32 11.34 -4 11 C-2.68 10.67 -1.36 10.34 0 10 C0 9.34 0 8.68 0 8 C-1.32 8 -2.64 8 -4 8 C-4 7.01 -4 6.02 -4 5 C-5.32 5 -6.64 5 -8 5 C-7.34 3.68 -6.68 2.36 -6 1 C-5.01 1.33 -4.02 1.66 -3 2 C-2.01 1.34 -1.02 0.68 0 0 Z " fill="#555556" transform="translate(341,97)"/>
<path d="M0 0 C2.52845528 1.26422764 2.76422764 2.52845528 4 5 C4.66 5.33 5.32 5.66 6 6 C6.33 5.34 6.66 4.68 7 4 C7.33 5.65 7.66 7.3 8 9 C8.66 8.67 9.32 8.34 10 8 C10.66 8.33 11.32 8.66 12 9 C10.44499019 12.81684226 7.96404505 15.19195732 5 18 C4 16 4 16 3 13 C2.34 13 1.68 13 1 13 C0.67 12.01 0.34 11.02 0 10 C0.66 10 1.32 10 2 10 C1.01 7.03 0.02 4.06 -1 1 C-0.67 0.67 -0.34 0.34 0 0 Z " fill="#7F7E7C" transform="translate(353,89)"/>
<path d="M0 0 C0.33 0 0.66 0 1 0 C1 15.18 1 30.36 1 46 C3.64 44.68 6.28 43.36 9 42 C9 44.31 9 46.62 9 49 C5.02958963 49.22057835 3.76687864 48.88343932 0 47 C0 31.49 0 15.98 0 0 Z " fill="#515455" transform="translate(356,503)"/>
<path d="M0 0 C-0.33 3.63 -0.66 7.26 -1 11 C0.32 11.66 1.64 12.32 3 13 C2.34 13 1.68 13 1 13 C1.99 14.485 1.99 14.485 3 16 C3.99 15.34 4.98 14.68 6 14 C6 14.99 6 15.98 6 17 C6.66 16.01 7.32 15.02 8 14 C8.625 15.875 8.625 15.875 9 18 C7 20 7 20 4.6875 20.625 C1.44555866 19.87106015 1.10342671 19.20228586 -0.6875 16.5 C-2.99983877 12.35981248 -4.37186554 8.71100846 -5 4 C-3 0 -3 0 0 0 Z " fill="#323437" transform="translate(253,319)"/>
<path d="M0 0 C0.66 0.33 1.32 0.66 2 1 C3.69315377 1.09630516 5.39004832 1.13075045 7.0859375 1.1328125 C8.60574219 1.13474609 8.60574219 1.13474609 10.15625 1.13671875 C11.2184375 1.13285156 12.280625 1.12898438 13.375 1.125 C14.42945313 1.12886719 15.48390625 1.13273437 16.5703125 1.13671875 C17.58609375 1.13542969 18.601875 1.13414063 19.6484375 1.1328125 C20.57833496 1.13168457 21.50823242 1.13055664 22.46630859 1.12939453 C24.792554 1.01059418 26.77322235 0.65739229 29 0 C29 1.32 29 2.64 29 4 C18.77 4 8.54 4 -2 4 C-2 3.34 -2 2.68 -2 2 C-1.34 2 -0.68 2 0 2 C0 1.34 0 0.68 0 0 Z " fill="#EFEFEE" transform="translate(480,32)"/>
<path d="M0 0 C0.66 0 1.32 0 2 0 C1.62403791 2.78211944 1.32681541 4.5879284 -0.4375 6.8125 C-2 8 -2 8 -4 8 C-4 8.66 -4 9.32 -4 10 C-12.79909866 10.77944772 -19.11537979 8.85286851 -27 5 C-23.57263289 3.8575443 -23.17147277 4.12576953 -20 5.4375 C-14.64253864 7.37924876 -9.6347503 7.28437058 -4 7 C-4 6.34 -4 5.68 -4 5 C-3.01 4.34 -2.02 3.68 -1 3 C-0.67 2.01 -0.34 1.02 0 0 Z " fill="#252626" transform="translate(353,262)"/>
<path d="M0 0 C-0.33 0.99 -0.66 1.98 -1 3 C-0.34 3.66 0.32 4.32 1 5 C-2.4019487 7.09350689 -5.05272412 7.17942163 -9 7 C-9 7.66 -9 8.32 -9 9 C-10.65 8.67 -12.3 8.34 -14 8 C-13.67 6.68 -13.34 5.36 -13 4 C-12.34 4 -11.68 4 -11 4 C-10.34 3.34 -9.68 2.68 -9 2 C-5.81720186 0.78105603 -3.42085146 0 0 0 Z " fill="#494C4D" transform="translate(291,244)"/>
<path d="M0 0 C0.66 0.33 1.32 0.66 2 1 C1.54625 1.433125 1.0925 1.86625 0.625 2.3125 C-1.20024334 4.10798342 -1.20024334 4.10798342 -3 7 C-4.07494116 7.99100369 -5.18216595 8.94767495 -6.3125 9.875 C-10.74009832 13.59966003 -14.64781905 17.5770786 -18.375 22 C-21.57542664 25.71390168 -24.90310844 28.32447898 -29 31 C-27.34763349 26.70932454 -24.1094793 23.8570447 -20.8984375 20.703125 C-20.30197418 20.10949158 -19.70551086 19.51585815 -19.0909729 18.90423584 C-17.1903019 17.01473373 -15.28278526 15.13231608 -13.375 13.25 C-12.08287532 11.96790935 -10.79120324 10.68536239 -9.5 9.40234375 C-6.33855521 6.26291568 -3.1709539 3.12982199 0 0 Z " fill="#ECECEB" transform="translate(482,422)"/>
<path d="M0 0 C0.99 0.33 1.98 0.66 3 1 C2.34 2.32 1.68 3.64 1 5 C-2 5 -2 5 -4 4 C-4 3.34 -4 2.68 -4 2 C-4.66 2 -5.32 2 -6 2 C-6 2.99 -6 3.98 -6 5 C-5.34 5 -4.68 5 -4 5 C-4 5.66 -4 6.32 -4 7 C-8.455 6.01 -8.455 6.01 -13 5 C-12.67 4.01 -12.34 3.02 -12 2 C-10.02 2.495 -10.02 2.495 -8 3 C-7.67 2.01 -7.34 1.02 -7 0 C-4.30224476 -1.34887762 -2.88231982 -0.70300484 0 0 Z " fill="#343639" transform="translate(297,357)"/>
<path d="M0 0 C-0.33 0.66 -0.66 1.32 -1 2 C-9.25 2 -17.5 2 -26 2 C-26 1.34 -26 0.68 -26 0 C-16.81824344 -1.95356523 -9.18175656 -1.95356523 0 0 Z " fill="#242425" transform="translate(213,36)"/>
<path d="M0 0 C2 3 2 3 3 5 C3.66 4.01 4.32 3.02 5 2 C7.50357861 2.8345262 9.66785852 3.79371992 12 5 C11.01 5.33 10.02 5.66 9 6 C8.34 6.66 7.68 7.32 7 8 C6.67 7.67 6.34 7.34 6 7 C5.01 7.33 4.02 7.66 3 8 C3 8.66 3 9.32 3 10 C2.34 10 1.68 10 1 10 C0.34 9.01 -0.32 8.02 -1 7 C-1.99 7.495 -1.99 7.495 -3 8 C-3 7.01 -3 6.02 -3 5 C-3.66 4.67 -4.32 4.34 -5 4 C-4.34 4 -3.68 4 -3 4 C-2.67 3.01 -2.34 2.02 -2 1 C-1.34 0.67 -0.68 0.34 0 0 Z " fill="#5D5E61" transform="translate(353,548)"/>
<path d="M0 0 C0.66 1.32 1.32 2.64 2 4 C1.01 4.495 1.01 4.495 0 5 C0 8.96 0 12.92 0 17 C0.66 17 1.32 17 2 17 C2 17.66 2 18.32 2 19 C1.34 19 0.68 19 0 19 C0.144375 19.83144531 0.28875 20.66289062 0.4375 21.51953125 C0.623125 22.60621094 0.80875 23.69289063 1 24.8125 C1.185625 25.89144531 1.37125 26.97039062 1.5625 28.08203125 C2 31 2 31 2 34 C0 33 0 33 -1.14453125 30.20703125 C-2.56260849 24.76944811 -1.99668179 19.24279853 -1.6875 13.6875 C-1.63916016 12.59115234 -1.59082031 11.49480469 -1.54101562 10.36523438 C-1.14773261 2.29546523 -1.14773261 2.29546523 0 0 Z " fill="#2C2D35" transform="translate(246,287)"/>
<path d="M0 0 C0 0.99 0 1.98 0 3 C-0.66 2.67 -1.32 2.34 -2 2 C-1.01 3.65 -0.02 5.3 1 7 C-0.32 7.33 -1.64 7.66 -3 8 C-3 8.66 -3 9.32 -3 10 C-3.99 10 -4.98 10 -6 10 C-6.33 10.66 -6.66 11.32 -7 12 C-9.5625 12.625 -9.5625 12.625 -12 13 C-11.67 11.68 -11.34 10.36 -11 9 C-10.34 9 -9.68 9 -9 9 C-7.97388051 7.34928604 -6.97691857 5.68029994 -6 4 C-3.93532144 1.59120835 -3.11005341 1.03668447 0 0 Z " fill="#3A5151" transform="translate(270,254)"/>
<path d="M0 0 C0.33 0.66 0.66 1.32 1 2 C-0.14082031 1.938125 -1.28164063 1.87625 -2.45703125 1.8125 C-7.31442453 1.8125 -11.21655819 3.226007 -15.6875 5 C-24.4685529 8.42901274 -24.4685529 8.42901274 -29 8 C-26.18219121 6.12146081 -24.33173349 5.42510156 -21.125 4.5625 C-18.14234886 3.72134946 -16.12546223 3.08685847 -13.5625 1.3125 C-9.30067072 -0.87038817 -4.69787577 -0.22214124 0 0 Z " fill="#1C1D1D" transform="translate(347,335)"/>
<path d="M0 0 C1.32 0.66 2.64 1.32 4 2 C3.00102287 4.99693138 2.34869747 6.02709413 0 8 C-0.66 8 -1.32 8 -2 8 C-2.66 10.64 -3.32 13.28 -4 16 C-4.99 16 -5.98 16 -7 16 C-6.40165275 11.85701333 -4.99335715 8.81805623 -2.9375 5.1875 C-2.11572266 3.72376953 -2.11572266 3.72376953 -1.27734375 2.23046875 C-0.85582031 1.49441406 -0.43429688 0.75835937 0 0 Z " fill="#2A2C32" transform="translate(256,263)"/>
<path d="M0 0 C0.66 0 1.32 0 2 0 C2 8.91 2 17.82 2 27 C-0.26598448 23.60102327 -0.23742654 22.43680827 -0.1953125 18.45703125 C-0.18886719 17.38388672 -0.18242188 16.31074219 -0.17578125 15.20507812 C-0.15064453 13.52575195 -0.15064453 13.52575195 -0.125 11.8125 C-0.11597656 10.68134766 -0.10695312 9.55019531 -0.09765625 8.38476562 C-0.07406862 5.58963172 -0.041153 2.79492155 0 0 Z " fill="#1D1D1D" transform="translate(44,178)"/>
<path d="M0 0 C3 1 3 1 4.9375 3.5 C7.04586025 6.05558818 7.7991535 6.65705216 11 7 C11 7.66 11 8.32 11 9 C11.33 9.66 11.66 10.32 12 11 C9.03 10.505 9.03 10.505 6 10 C6 9.34 6 8.68 6 8 C3.03 7.505 3.03 7.505 0 7 C0 4.66666667 0 2.33333333 0 0 Z " fill="#626365" transform="translate(342,96)"/>
<path d="M0 0 C1.9375 0.375 1.9375 0.375 4 1 C4.33 1.66 4.66 2.32 5 3 C6.32 2.67 7.64 2.34 9 2 C8.79375 2.5775 8.5875 3.155 8.375 3.75 C7.91338739 6.51967567 8.57055055 7.64561267 10 10 C8.68 10.33 7.36 10.66 6 11 C6 10.34 6 9.68 6 9 C5.34 8.67 4.68 8.34 4 8 C4 7.34 4 6.68 4 6 C2.68 5.34 1.36 4.68 0 4 C0 2.68 0 1.36 0 0 Z " fill="#2C2C2C" transform="translate(346,552)"/>
<path d="M0 0 C0.66 0 1.32 0 2 0 C5 3.46153846 5 3.46153846 5 6 C4.01 6.495 4.01 6.495 3 7 C4.65 7.33 6.3 7.66 8 8 C7.67 8.99 7.34 9.98 7 11 C5.68 11 4.36 11 3 11 C3 10.34 3 9.68 3 9 C2.01 8.67 1.02 8.34 0 8 C-1.1875 4.9375 -1.1875 4.9375 -2 2 C-1.34 2 -0.68 2 0 2 C0 1.34 0 0.68 0 0 Z " fill="#252626" transform="translate(338,543)"/>
<path d="M0 0 C0.66 0.33 1.32 0.66 2 1 C2.08086147 2.79093191 2.13912702 4.58289628 2.1875 6.375 C2.22230469 7.37273437 2.25710937 8.37046875 2.29296875 9.3984375 C2.19628906 10.25695312 2.09960938 11.11546875 2 12 C1.01 12.66 0.02 13.32 -1 14 C-3.4294516 10.3558226 -3.16179575 8.28758728 -3 4 C-2.34 4 -1.68 4 -1 4 C-0.67 2.68 -0.34 1.36 0 0 Z " fill="#27282B" transform="translate(48,165)"/>
<path d="M0 0 C2.52845528 1.26422764 2.76422764 2.52845528 4 5 C4.66 5.33 5.32 5.66 6 6 C6.33 5.34 6.66 4.68 7 4 C8.15941038 7.47823115 7.70820884 9.45895578 7 13 C6.01 12.34 5.02 11.68 4 11 C4 10.34 4 9.68 4 9 C3.34 9 2.68 9 2 9 C0.4375 6.1875 0.4375 6.1875 -1 3 C-0.67 2.01 -0.34 1.02 0 0 Z " fill="#887C88" transform="translate(353,89)"/>
<path d="M0 0 C2.46800047 1.15173355 4.04783565 2.04783565 6 4 C7.47877263 8.78973525 7.11058537 13.85230955 7.0625 18.8125 C7.05798828 19.69615234 7.05347656 20.57980469 7.04882812 21.49023438 C7.03709866 23.66018559 7.01916495 25.83010172 7 28 C6.67 28 6.34 28 6 28 C5.94392578 26.15535156 5.94392578 26.15535156 5.88671875 24.2734375 C5.82102972 22.64059599 5.75458341 21.00778482 5.6875 19.375 C5.66494141 18.56675781 5.64238281 17.75851562 5.61914062 16.92578125 C5.39323618 11.87373641 4.56597182 8.47153267 2 4 C2 3.34 2 2.68 2 2 C1.34 2 0.68 2 0 2 C0 1.34 0 0.68 0 0 Z " fill="#0C0F10" transform="translate(349,337)"/>
<path d="M0 0 C0.33 2.31 0.66 4.62 1 7 C-0.98 7 -2.96 7 -5 7 C-5 5.68 -5 4.36 -5 3 C-5.99 2.67 -6.98 2.34 -8 2 C-5.09399739 0.74335022 -3.20395416 0 0 0 Z " fill="#9A9A9A" transform="translate(367,89)"/>
<path d="M0 0 C0.33 0 0.66 0 1 0 C1 1.98 1 3.96 1 6 C3.64 4.68 6.28 3.36 9 2 C9 4.31 9 6.62 9 9 C5.37471432 9.20140476 3.13498292 8.85776765 0 7 C0 4.69 0 2.38 0 0 Z " fill="#787878" transform="translate(356,543)"/>
<path d="M0 0 C3.01614813 1.1170919 4.64508669 2.6125776 6.625 5.0625 C8.67119397 8.00824713 8.67119397 8.00824713 11 9 C10.67 9.99 10.34 10.98 10 12 C7.5 10.625 7.5 10.625 5 9 C5 8.34 5 7.68 5 7 C4.01 6.67 3.02 6.34 2 6 C0.8125 2.9375 0.8125 2.9375 0 0 Z " fill="#313535" transform="translate(282,489)"/>
<path d="M0 0 C2.49764097 2.42826206 4.85471665 4.81385571 7 7.5625 C9.104689 10.12758972 11.35227996 12.01420997 14 14 C13.67 14.66 13.34 15.32 13 16 C8.4024734 13.83645807 6.15335893 10.80668596 3.33203125 6.7421875 C2.10056385 4.86740273 2.10056385 4.86740273 0 4 C0 2.68 0 1.36 0 0 Z " fill="#232425" transform="translate(269,322)"/>
<path d="M0 0 C3.65316671 1.24976756 4.78065836 1.67098753 7 5 C7.66 5.33 8.32 5.66 9 6 C8.67 6.99 8.34 7.98 8 9 C5 9 5 9 3 8 C2.67 7.01 2.34 6.02 2 5 C-0.00016466 3.79117904 -0.00016466 3.79117904 -2 3 C-1.34 2.67 -0.68 2.34 0 2 C0 1.34 0 0.68 0 0 Z " fill="#9A9B9A" transform="translate(357,90)"/>
<path d="M0 0 C0.66 0.33 1.32 0.66 2 1 C-1.53962332 5.38239078 -5.1912706 9.2004719 -9.58203125 12.73828125 C-11.1369442 13.96479293 -11.1369442 13.96479293 -12 16 C-12.66 16 -13.32 16 -14 16 C-12.34136495 11.67495164 -9.128959 8.90581175 -5.875 5.75 C-5.31167969 5.19570313 -4.74835938 4.64140625 -4.16796875 4.0703125 C-2.78313972 2.70895515 -1.39216796 1.35385141 0 0 Z " fill="#EBEBEA" transform="translate(414,491)"/>
<path d="M0 0 C2 1 4 2 6 3 C5.67 3.99 5.34 4.98 5 6 C3.906875 5.79375 2.81375 5.5875 1.6875 5.375 C-2.0838401 4.59653475 -2.0838401 4.59653475 -5 7 C-3.70700306 4.11562221 -2.34058637 2.12780579 0 0 Z " fill="#C9C8C7" transform="translate(371,535)"/>
<path d="M0 0 C2.97 0 5.94 0 9 0 C9 0.66 9 1.32 9 2 C8.195625 2.12375 7.39125 2.2475 6.5625 2.375 C5.2940625 2.684375 5.2940625 2.684375 4 3 C3.67 3.66 3.34 4.32 3 5 C1.35 4.67 -0.3 4.34 -2 4 C-1.34 3.67 -0.68 3.34 0 3 C0 2.01 0 1.02 0 0 Z " fill="#494A4A" transform="translate(300,242)"/>
<path d="M0 0 C0.33 0.66 0.66 1.32 1 2 C-1.31 4.97 -3.62 7.94 -6 11 C-7.32 10.67 -8.64 10.34 -10 10 C-6.66666667 6.66666667 -3.33333333 3.33333333 0 0 Z " fill="#302834" transform="translate(78,98)"/>
<path d="M0 0 C0.33 0.99 0.66 1.98 1 3 C1.66 3 2.32 3 3 3 C2 6 2 6 1 7 C0.01 7.33 -0.98 7.66 -2 8 C-3.32 6.68 -4.64 5.36 -6 4 C-5.67 3.34 -5.34 2.68 -5 2 C-4.01 2 -3.02 2 -2 2 C-1.34 1.34 -0.68 0.68 0 0 Z " fill="#303336" transform="translate(264,339)"/>
<path d="M0 0 C6.42590164 0.9877064 12.14202052 2.13609892 18 5 C18 5.33 18 5.66 18 6 C11.18012971 5.56699236 6.08356979 4.09212176 0 1 C0 0.67 0 0.34 0 0 Z " fill="#191A19" transform="translate(326,266)"/>
<path d="M0 0 C1.32 0.99 2.64 1.98 4 3 C3.360625 3.226875 2.72125 3.45375 2.0625 3.6875 C-0.27193661 4.85250896 -0.27193661 4.85250896 -0.75 7.625 C-0.8325 8.40875 -0.915 9.1925 -1 10 C-1.33 9.34 -1.66 8.68 -2 8 C-2.99 8.33 -3.98 8.66 -5 9 C-5 4.61031544 -2.87194899 3.23094261 0 0 Z " fill="#333538" transform="translate(263,255)"/>
<path d="M0 0 C0.66 0.33 1.32 0.66 2 1 C2 1.99 2 2.98 2 4 C0.8553125 4.1546875 0.8553125 4.1546875 -0.3125 4.3125 C-3.20604856 5.0527101 -4.16791435 5.70989294 -6 8 C-6.33 8.66 -6.66 9.32 -7 10 C-7.99 9.01 -8.98 8.02 -10 7 C-8.70982586 6.01886757 -7.41780894 5.04015801 -6.125 4.0625 C-5.04605469 3.24458984 -5.04605469 3.24458984 -3.9453125 2.41015625 C-2 1 -2 1 0 0 Z " fill="#2F3236" transform="translate(278,245)"/>
<path d="M0 0 C2.97 0 5.94 0 9 0 C9.33 0.66 9.66 1.32 10 2 C9.0625 4.125 9.0625 4.125 8 6 C7.34 6 6.68 6 6 6 C6 5.01 6 4.02 6 3 C5.195625 2.87625 4.39125 2.7525 3.5625 2.625 C2.716875 2.41875 1.87125 2.2125 1 2 C0.67 1.34 0.34 0.68 0 0 Z " fill="#47494B" transform="translate(340,544)"/>
<path d="M0 0 C0.66 0.33 1.32 0.66 2 1 C1.34 2.32 0.68 3.64 0 5 C-1.32 4.67 -2.64 4.34 -4 4 C-4.33 4.99 -4.66 5.98 -5 7 C-5.99 6.67 -6.98 6.34 -8 6 C-3.375 1.125 -3.375 1.125 0 0 Z " fill="#404243" transform="translate(263,265)"/>
<path d="M0 0 C1.4606285 2.64738916 2 3.89448334 2 7 C0.35 7 -1.3 7 -3 7 C-3.33 7.99 -3.66 8.98 -4 10 C-4.33 8.35 -4.66 6.7 -5 5 C-4.01 5.33 -3.02 5.66 -2 6 C-1.7834375 5.071875 -1.7834375 5.071875 -1.5625 4.125 C-1 2 -1 2 0 0 Z " fill="#444547" transform="translate(251,279)"/>
<path d="M0 0 C2.50357861 0.8345262 4.66785852 1.79371992 7 3 C6.01 3.33 5.02 3.66 4 4 C3.34 4.66 2.68 5.32 2 6 C1.67 5.67 1.34 5.34 1 5 C0.01 5 -0.98 5 -2 5 C-1.34 3.35 -0.68 1.7 0 0 Z " fill="#39393A" transform="translate(358,550)"/>
<path d="M0 0 C2.97 0.495 2.97 0.495 6 1 C6 1.66 6 2.32 6 3 C6.66 3 7.32 3 8 3 C8 3.66 8 4.32 8 5 C3.545 4.01 3.545 4.01 -1 3 C-0.67 2.01 -0.34 1.02 0 0 Z " fill="#2D2E33" transform="translate(285,359)"/>
<path d="M0 0 C0.33 0.66 0.66 1.32 1 2 C1.66 2 2.32 2 3 2 C3.67119549 3.4562545 4.33681807 4.91507867 5 6.375 C5.556875 7.59316406 5.556875 7.59316406 6.125 8.8359375 C7 11 7 11 7 13 C6.34 13 5.68 13 5 13 C4.15930585 11.39967863 3.32768495 9.79458829 2.5 8.1875 C1.80390625 6.84751953 1.80390625 6.84751953 1.09375 5.48046875 C0 3 0 3 0 0 Z " fill="#E5E4E3" transform="translate(626,110)"/>
<path d="M0 0 C0.99 0.33 1.98 0.66 3 1 C2.67 2.98 2.34 4.96 2 7 C2.66 7.33 3.32 7.66 4 8 C3.01 8 2.02 8 1 8 C0.67 7.01 0.34 6.02 0 5 C-0.66 4.67 -1.32 4.34 -2 4 C-2 3.01 -2 2.02 -2 1 C-1.34 0.67 -0.68 0.34 0 0 Z " fill="#33343A" transform="translate(250,285)"/>
<path d="M0 0 C1.32 0.66 2.64 1.32 4 2 C3.67 2.66 3.34 3.32 3 4 C0.6859378 4.73075648 -1.64828869 5.40138258 -4 6 C-4 5.01 -4 4.02 -4 3 C-3.01 3 -2.02 3 -1 3 C-0.67 2.01 -0.34 1.02 0 0 Z " fill="#45494A" transform="translate(322,356)"/>
<path d="M0 0 C2 0.875 2 0.875 4 2 C4.66 2.33 5.32 2.66 6 3 C5.34 4.32 4.68 5.64 4 7 C3.38125 6.34 2.7625 5.68 2.125 5 C0.24362573 2.7715451 0.24362573 2.7715451 -2 3 C-2 2.34 -2 1.68 -2 1 C-1.34 0.67 -0.68 0.34 0 0 Z " fill="#4E5153" transform="translate(261,468)"/>
<path d="M0 0 C0.2475 0.53625 0.495 1.0725 0.75 1.625 C2.29696975 4.56424252 4.13014369 7.25754408 6 10 C4.02 9.34 2.04 8.68 0 8 C-0.38063221 5.6739143 -0.71269945 3.33944736 -1 1 C-0.67 0.67 -0.34 0.34 0 0 Z " fill="#313638" transform="translate(276,350)"/>
<path d="M0 0 C1.64767247 0.28109113 3.29313145 0.57518526 4.9375 0.875 C5.85402344 1.03742188 6.77054687 1.19984375 7.71484375 1.3671875 C8.46894531 1.57601563 9.22304688 1.78484375 10 2 C10.33 2.66 10.66 3.32 11 4 C9.02 4 7.04 4 5 4 C5 3.34 5 2.68 5 2 C3.35 1.67 1.7 1.34 0 1 C0 0.67 0 0.34 0 0 Z " fill="#2F3030" transform="translate(314,262)"/>
<path d="M0 0 C0.66 0 1.32 0 2 0 C4.04169485 2.90548882 5 4.40142046 5 8 C2 7 2 7 0.8125 5.125 C0 3 0 3 0 0 Z " fill="#2A3234" transform="translate(67,265)"/>
<path d="M0 0 C0.99 0 1.98 0 3 0 C3 0.99 3 1.98 3 3 C3.66 3.33 4.32 3.66 5 4 C4.67 4.66 4.34 5.32 4 6 C3.34 6 2.68 6 2 6 C1.67 5.34 1.34 4.68 1 4 C0.01 3.34 -0.98 2.68 -2 2 C-1.34 2 -0.68 2 0 2 C0 1.34 0 0.68 0 0 Z " fill="#2F2F2F" transform="translate(344,92)"/>
<path d="M0 0 C0.66 0.33 1.32 0.66 2 1 C-0.31 3.64 -2.62 6.28 -5 9 C-5.33 8.01 -5.66 7.02 -6 6 C-4.02 4.02 -2.04 2.04 0 0 Z " fill="#E5E4E4" transform="translate(396,509)"/>
<path d="M0 0 C1.32 0.66 2.64 1.32 4 2 C3.34 3.32 2.68 4.64 2 6 C2 5.34 2 4.68 2 4 C0.68 4 -0.64 4 -2 4 C-1.34 2.68 -0.68 1.36 0 0 Z " fill="#383838" transform="translate(335,98)"/>
<path d="M0 0 C0.99 0.33 1.98 0.66 3 1 C2.34 2.32 1.68 3.64 1 5 C0.01 5 -0.98 5 -2 5 C-1.125 1.125 -1.125 1.125 0 0 Z " fill="#838583" transform="translate(362,97)"/>
<path d="M0 0 C0.66 0.33 1.32 0.66 2 1 C0.9024777 3.99324263 0.32317108 4.84610901 -2.625 6.25 C-3.40875 6.4975 -4.1925 6.745 -5 7 C-3.70700306 4.11562221 -2.34058637 2.12780579 0 0 Z " fill="#F6F6F4" transform="translate(450,454)"/>
<path d="M0 0 C2.62187494 1.04874998 3.79371361 1.64931313 5.25 4.125 C5.4975 4.74375 5.745 5.3625 6 6 C5.34 6.66 4.68 7.32 4 8 C3.34 6.02 2.68 4.04 2 2 C1.34 2 0.68 2 0 2 C0 1.34 0 0.68 0 0 Z " fill="#202120" transform="translate(349,337)"/>
<path d="M0 0 C1.32 0.66 2.64 1.32 4 2 C3.34 2.66 2.68 3.32 2 4 C1.34 3.67 0.68 3.34 0 3 C0 3.66 0 4.32 0 5 C-0.66 5 -1.32 5 -2 5 C-1.125 1.125 -1.125 1.125 0 0 Z " fill="#4A4C4C" transform="translate(254,273)"/>
<path d="M0 0 C0.66 0 1.32 0 2 0 C0.70700306 2.88437779 -0.65941363 4.87219421 -3 7 C-3.66 6.67 -4.32 6.34 -5 6 C-3.38405168 3.95880212 -1.7143618 1.95927063 0 0 Z " fill="#C2C4C4" transform="translate(278,272)"/>
<path d="M0 0 C2.475 0.99 2.475 0.99 5 2 C5 2.66 5 3.32 5 4 C3.35 4.33 1.7 4.66 0 5 C-0.66 4.01 -1.32 3.02 -2 2 C-1.34 2 -0.68 2 0 2 C0 1.34 0 0.68 0 0 Z " fill="#CFCFCF" transform="translate(357,90)"/>
<path d="M0 0 C1.98 0 3.96 0 6 0 C6.33 0.66 6.66 1.32 7 2 C3.98968256 2.93423645 3.13349732 3.04449911 0 2 C0 1.34 0 0.68 0 0 Z " fill="#F8F8F8" transform="translate(374,80)"/>
<path d="M0 0 C0.99 0 1.98 0 3 0 C3.33 0.99 3.66 1.98 4 3 C2.35 2.67 0.7 2.34 -1 2 C-0.67 1.34 -0.34 0.68 0 0 Z " fill="#9B9B9B" transform="translate(375,534)"/>
<path d="M0 0 C0.99 0.33 1.98 0.66 3 1 C3 1.66 3 2.32 3 3 C2.01 3.33 1.02 3.66 0 4 C0 2.68 0 1.36 0 0 Z " fill="#363636" transform="translate(222,433)"/>
<path d="M0 0 C0.99 0.99 1.98 1.98 3 3 C2.01 3 1.02 3 0 3 C0 2.01 0 1.02 0 0 Z " fill="#151515" transform="translate(302,513)"/>
<path d="M0 0 C1.98 0.99 1.98 0.99 4 2 C2.68 1.67 1.36 1.34 0 1 C0 0.67 0 0.34 0 0 Z " fill="#191919" transform="translate(359,557)"/>
<path d="M0 0 C0.99 0 1.98 0 3 0 C2.67 0.66 2.34 1.32 2 2 C1.34 2 0.68 2 0 2 C0 1.34 0 0.68 0 0 Z " fill="#191919" transform="translate(240,452)"/>
<path d="M0 0 C0.99 0.33 1.98 0.66 3 1 C2.67 1.66 2.34 2.32 2 3 C1.34 2.01 0.68 1.02 0 0 Z " fill="#191919" transform="translate(72,279)"/>
<path d="M0 0 C0.33 0.66 0.66 1.32 1 2 C0.34 2.66 -0.32 3.32 -1 4 C-0.67 2.68 -0.34 1.36 0 0 Z " fill="#191919" transform="translate(63,116)"/>
<path d="M0 0 C0.66 0 1.32 0 2 0 C2 0.66 2 1.32 2 2 C1.34 2 0.68 2 0 2 C0 1.34 0 0.68 0 0 Z " fill="#FFFFFF" transform="translate(383,530)"/>
<path d="M0 0 C0 3 0 3 0 3 Z " fill="#FFFFFF" transform="translate(636,254)"/>
<path d="M0 0 C0.99 0.495 0.99 0.495 2 1 C1.01 1.495 1.01 1.495 0 2 C0 1.34 0 0.68 0 0 Z " fill="#000000" transform="translate(313,524)"/>
<path d="M0 0 C0.99 0.495 0.99 0.495 2 1 C1.01 1.495 1.01 1.495 0 2 C0 1.34 0 0.68 0 0 Z " fill="#555555" transform="translate(311,523)"/>
<path d="M0 0 C0.66 0 1.32 0 2 0 C1.67 0.66 1.34 1.32 1 2 C0.67 1.34 0.34 0.68 0 0 Z " fill="#2A2A2A" transform="translate(195,408)"/>
<path d="M0 0 C0.33 0.66 0.66 1.32 1 2 C0.34 1.67 -0.32 1.34 -1 1 C-0.67 0.67 -0.34 0.34 0 0 Z " fill="#FFFFFF" transform="translate(535,372)"/>
<path d="M0 0 C0.66 0.66 1.32 1.32 2 2 C1.34 2 0.68 2 0 2 C0 1.34 0 0.68 0 0 Z " fill="#000000" transform="translate(75,282)"/>
<path d="M0 0 C0.99 0.495 0.99 0.495 2 1 C1.01 1.495 1.01 1.495 0 2 C0 1.34 0 0.68 0 0 Z " fill="#000000" transform="translate(71,277)"/>
<path d="" fill="#FFFFFF" transform="translate(0,0)"/>
<path d="" fill="#000000" transform="translate(0,0)"/>
<path d="" fill="#FFFFFF" transform="translate(0,0)"/>
<path d="M0 0 C0.66 0 1.32 0 2 0 C1.67 0.66 1.34 1.32 1 2 C0.67 1.34 0.34 0.68 0 0 Z " fill="#555555" transform="translate(325,93)"/>
<path d="M0 0 C3 1 3 1 3 1 Z " fill="#FFFFFF" transform="translate(536,38)"/>
<path d="M0 0 C3 1 3 1 3 1 Z " fill="#2A2A2A" transform="translate(229,37)"/>
<path d="" fill="#000000" transform="translate(0,0)"/>
<path d="M0 0 C2 1 2 1 2 1 Z " fill="#FFFFFF" transform="translate(378,540)"/>
<path d="M0 0 C2 1 2 1 2 1 Z " fill="#FFFFFF" transform="translate(386,523)"/>
<path d="M0 0 C2 1 2 1 2 1 Z " fill="#7F7F7F" transform="translate(284,497)"/>
<path d="M0 0 C2 1 2 1 2 1 Z " fill="#FFFFFF" transform="translate(443,464)"/>
<path d="" fill="#7F7F7F" transform="translate(0,0)"/>
<path d="M0 0 C2 1 2 1 2 1 Z " fill="#7F7F7F" transform="translate(213,424)"/>
<path d="M0 0 C2 1 2 1 2 1 Z " fill="#FFFFFF" transform="translate(503,407)"/>
<path d="M0 0 C2 1 2 1 2 1 Z " fill="#FFFFFF" transform="translate(514,394)"/>
<path d="" fill="#404040" transform="translate(0,0)"/>
<path d="" fill="#00007F" transform="translate(0,0)"/>
<path d="M0 0 C2 1 2 1 2 1 Z " fill="#000000" transform="translate(124,337)"/>
<path d="M0 0 C2 1 2 1 2 1 Z " fill="#FFFFFF" transform="translate(585,323)"/>
<path d="" fill="#000000" transform="translate(0,0)"/>
<path d="" fill="#FFFFFF" transform="translate(0,0)"/>
<path d="" fill="#FFFFFF" transform="translate(0,0)"/>
<path d="" fill="#FFFFFF" transform="translate(0,0)"/>
<path d="" fill="#404040" transform="translate(0,0)"/>
<path d="M0 0 C2 1 2 1 2 1 Z " fill="#000000" transform="translate(340,95)"/>
<path d="M0 0 C2 1 2 1 2 1 Z " fill="#7F7F7F" transform="translate(351,87)"/>
<path d="" fill="#000000" transform="translate(0,0)"/>
<path d="M0 0 C2 1 2 1 2 1 Z " fill="#FFFFFF" transform="translate(382,75)"/>
<path d="M0 0 C2 1 2 1 2 1 Z " fill="#000000" transform="translate(106,66)"/>
<path d="" fill="#000000" transform="translate(0,0)"/>
<path d="M0 0 C2 1 2 1 2 1 Z " fill="#FFFFFF" transform="translate(566,50)"/>
<path d="M0 0 C2 1 2 1 2 1 Z " fill="#FFFFFF" transform="translate(564,49)"/>
<path d="M0 0 C2 1 2 1 2 1 Z " fill="#FFFFFF" transform="translate(562,48)"/>
<path d="M0 0 C2 1 2 1 2 1 Z " fill="#000000" transform="translate(262,47)"/>
<path d="M0 0 C2 1 2 1 2 1 Z " fill="#FFFFFF" transform="translate(449,38)"/>
<path d="M0 0 C2 1 2 1 2 1 Z " fill="#FFFFFF" transform="translate(533,37)"/>
<path d="M0 0 C2 1 2 1 2 1 Z " fill="#FFFFFF" transform="translate(502,32)"/>
<path d="M0 0 C2 1 2 1 2 1 Z " fill="#FFFFFF" transform="translate(498,32)"/>
<path d="" fill="#000000" transform="translate(0,0)"/>
<path d="" fill="#000000" transform="translate(0,0)"/>
<path d="" fill="#FF0000" transform="translate(0,0)"/>
<path d="" fill="#000000" transform="translate(0,0)"/>
<path d="" fill="#000000" transform="translate(0,0)"/>
<path d="" fill="#000000" transform="translate(0,0)"/>
<path d="" fill="#000000" transform="translate(0,0)"/>
<path d="" fill="#FFFFFF" transform="translate(0,0)"/>
<path d="" fill="#FFFFFF" transform="translate(0,0)"/>
<path d="" fill="#000000" transform="translate(0,0)"/>
<path d="" fill="#FFFFFF" transform="translate(0,0)"/>
<path d="" fill="#000000" transform="translate(0,0)"/>
<path d="" fill="#000000" transform="translate(0,0)"/>
<path d="" fill="#FFFFFF" transform="translate(0,0)"/>
<path d="" fill="#FFFFFF" transform="translate(0,0)"/>
<path d="" fill="#000000" transform="translate(0,0)"/>
<path d="" fill="#FFFFFF" transform="translate(0,0)"/>
<path d="" fill="#FFFFFF" transform="translate(0,0)"/>
<path d="" fill="#000000" transform="translate(0,0)"/>
<path d="" fill="#FFFFFF" transform="translate(0,0)"/>
<path d="" fill="#000000" transform="translate(0,0)"/>
<path d="" fill="#FFFFFF" transform="translate(0,0)"/>
<path d="" fill="#000000" transform="translate(0,0)"/>
<path d="" fill="#FFFFFF" transform="translate(0,0)"/>
<path d="" fill="#FFFFFF" transform="translate(0,0)"/>
<path d="" fill="#000000" transform="translate(0,0)"/>
<path d="" fill="#FFFFFF" transform="translate(0,0)"/>
<path d="" fill="#FFFFFF" transform="translate(0,0)"/>
<path d="" fill="#FFFFFF" transform="translate(0,0)"/>
<path d="" fill="#FFFFFF" transform="translate(0,0)"/>
<path d="" fill="#00FFFF" transform="translate(0,0)"/>
<path d="" fill="#000000" transform="translate(0,0)"/>
<path d="" fill="#000000" transform="translate(0,0)"/>
<path d="" fill="#000000" transform="translate(0,0)"/>
<path d="" fill="#000000" transform="translate(0,0)"/>
<path d="" fill="#000000" transform="translate(0,0)"/>
<path d="" fill="#000000" transform="translate(0,0)"/>
<path d="" fill="#000000" transform="translate(0,0)"/>
<path d="" fill="#000000" transform="translate(0,0)"/>
<path d="" fill="#FFFFFF" transform="translate(0,0)"/>
<path d="" fill="#FFFFFF" transform="translate(0,0)"/>
<path d="" fill="#FFFFFF" transform="translate(0,0)"/>
<path d="" fill="#000000" transform="translate(0,0)"/>
<path d="" fill="#FFFFFF" transform="translate(0,0)"/>
<path d="" fill="#FFFFFF" transform="translate(0,0)"/>
<path d="" fill="#000000" transform="translate(0,0)"/>
<path d="" fill="#000000" transform="translate(0,0)"/>
<path d="" fill="#000000" transform="translate(0,0)"/>
<path d="" fill="#FFFFFF" transform="translate(0,0)"/>
<path d="" fill="#FFFFFF" transform="translate(0,0)"/>
<path d="" fill="#FFFFFF" transform="translate(0,0)"/>
<path d="" fill="#000000" transform="translate(0,0)"/>
<path d="" fill="#FFFFFF" transform="translate(0,0)"/>
<path d="" fill="#000000" transform="translate(0,0)"/>
<path d="" fill="#FFFFFF" transform="translate(0,0)"/>
<path d="" fill="#000000" transform="translate(0,0)"/>
<path d="" fill="#FFFFFF" transform="translate(0,0)"/>
<path d="" fill="#000000" transform="translate(0,0)"/>
<path d="" fill="#000000" transform="translate(0,0)"/>
<path d="" fill="#FFFFFF" transform="translate(0,0)"/>
<path d="" fill="#000000" transform="translate(0,0)"/>
<path d="" fill="#FFFFFF" transform="translate(0,0)"/>
<path d="" fill="#FFFFFF" transform="translate(0,0)"/>
<path d="" fill="#FFFFFF" transform="translate(0,0)"/>
<path d="" fill="#000000" transform="translate(0,0)"/>
<path d="" fill="#FFFFFF" transform="translate(0,0)"/>
<path d="" fill="#FFFFFF" transform="translate(0,0)"/>
<path d="" fill="#000000" transform="translate(0,0)"/>
<path d="" fill="#FFFFFF" transform="translate(0,0)"/>
<path d="" fill="#000000" transform="translate(0,0)"/>
<path d="" fill="#000000" transform="translate(0,0)"/>
<path d="" fill="#000000" transform="translate(0,0)"/>
<path d="" fill="#000000" transform="translate(0,0)"/>
<path d="" fill="#FFFFFF" transform="translate(0,0)"/>
<path d="" fill="#FFFFFF" transform="translate(0,0)"/>
<path d="" fill="#000000" transform="translate(0,0)"/>
<path d="" fill="#FFFFFF" transform="translate(0,0)"/>
<path d="" fill="#808080" transform="translate(0,0)"/>
<path d="" fill="#FFFFFF" transform="translate(0,0)"/>
<path d="" fill="#FFFFFF" transform="translate(0,0)"/>
<path d="" fill="#FFFFFF" transform="translate(0,0)"/>
<path d="" fill="#000000" transform="translate(0,0)"/>
<path d="" fill="#000000" transform="translate(0,0)"/>
<path d="" fill="#FFFFFF" transform="translate(0,0)"/>
<path d="" fill="#FFFFFF" transform="translate(0,0)"/>
<path d="" fill="#FFFFFF" transform="translate(0,0)"/>
<path d="" fill="#FFFFFF" transform="translate(0,0)"/>
<path d="" fill="#000000" transform="translate(0,0)"/>
<path d="" fill="#000000" transform="translate(0,0)"/>
<path d="" fill="#000000" transform="translate(0,0)"/>
<path d="" fill="#FFFFFF" transform="translate(0,0)"/>
<path d="" fill="#FFFFFF" transform="translate(0,0)"/>
<path d="" fill="#000000" transform="translate(0,0)"/>
<path d="" fill="#FFFFFF" transform="translate(0,0)"/>
<path d="" fill="#FFFFFF" transform="translate(0,0)"/>
<path d="" fill="#FFFFFF" transform="translate(0,0)"/>
<path d="" fill="#FFFFFF" transform="translate(0,0)"/>
<path d="" fill="#FFFFFF" transform="translate(0,0)"/>
<path d="" fill="#000000" transform="translate(0,0)"/>
<path d="" fill="#000000" transform="translate(0,0)"/>
<path d="" fill="#000000" transform="translate(0,0)"/>
<path d="" fill="#FFFFFF" transform="translate(0,0)"/>
<path d="" fill="#000000" transform="translate(0,0)"/>
<path d="" fill="#FFFFFF" transform="translate(0,0)"/>
<path d="" fill="#000000" transform="translate(0,0)"/>
</svg>
